<svg width="4082" height="940" viewBox="0 0 4082 940" fill="none" xmlns="http://www.w3.org/2000/svg">
<rect width="4081.18" height="940" rx="80" fill="white"/>
<path d="M352.149 528.411C351.134 526.647 350.432 524.72 350.074 522.717C350.471 524.712 351.178 526.632 352.149 528.411ZM354.7 531.558C355.68 532.529 356.784 533.372 358.006 533.977C356.785 533.353 355.671 532.536 354.709 531.558H354.7Z" fill="#083042"/>
<path d="M454.184 639.597H453.566C447.376 639.623 441.281 638.08 435.848 635.112L311.451 565.591C304.111 561.477 299.595 553.849 299.595 545.608V404.155C299.595 398.095 300.694 392.281 303.259 387.196L205.99 333.062C201.96 341.537 199.886 351.107 200.005 361.162V594.785C200.078 601.542 201.937 608.159 205.393 613.965C208.849 619.771 213.779 624.56 219.683 627.847L424.853 742.665C433.902 747.75 444.041 750.173 454.061 750.173V750.054C454.303 735.4 454.184 676.653 454.184 639.597Z" fill="#083042"/>
<path d="M551.814 412.86L551.077 411.774C550.468 410.926 549.863 410.198 549.254 409.355C549.863 410.079 550.468 410.931 551.077 411.774C551.376 412.098 551.625 412.461 551.814 412.86ZM449.417 356.183C450.035 356.183 450.525 356.064 451.138 356.064C450.525 356.183 449.911 356.183 449.417 356.183Z" fill="#3DDB85"/>
<path d="M303.135 387.068C305.862 381.416 310.2 376.698 315.605 373.508L432.666 305.077C438.028 301.928 444.121 300.238 450.34 300.174C456.558 300.111 462.685 301.676 468.111 304.715L586.399 370.966C591.707 373.929 596.265 378.071 599.72 383.074L695.404 326.521C689.714 318.326 682.235 311.534 673.532 306.657L478.126 197.294C469.181 192.297 459.086 189.724 448.84 189.83C438.594 189.936 428.554 192.717 419.715 197.899L226.52 310.771C217.602 315.98 210.451 323.743 205.99 333.058L303.135 387.068Z" fill="#3DDC84"/>
<path d="M352.374 414.325C352.621 413.84 352.864 413.354 353.115 413.001C352.864 413.482 352.626 413.84 352.374 414.325Z" fill="#3DDB85"/>
<path d="M695.28 326.521L599.597 383.074C603.26 388.401 605.463 394.696 605.578 401.123V535.796C605.652 541.964 604.085 548.041 601.037 553.404C597.988 558.767 593.568 563.223 588.23 566.315L471.161 634.755C465.992 637.764 460.15 639.429 454.171 639.597C454.299 676.538 454.299 735.28 454.052 749.935V750.054C464.313 749.942 474.373 747.187 483.26 742.056L676.459 629.06C694.424 618.524 705.424 599.385 705.177 578.674V356.435C705.053 345.656 701.389 335.362 695.28 326.521Z" fill="#4285F4"/>
<path d="M554.035 521.388C553.911 521.635 553.911 521.878 553.788 522.13C553.924 521.904 554.009 521.651 554.035 521.388ZM552.808 414.449C552.556 413.84 552.19 413.354 551.823 412.749C552.19 413.354 552.56 413.963 552.808 414.449ZM465.065 580.488L543.516 534.591L465.065 580.497V580.488ZM553.05 524.173C552.803 524.783 552.437 525.387 552.185 525.996C552.437 525.268 552.68 524.659 553.05 524.173Z" fill="#4285F4"/>
<path d="M352.025 415.411C351.029 417.764 350.411 420.259 350.193 422.805C350.07 423.767 350.07 424.738 350.07 425.833V520.66C350.07 521.384 350.07 521.993 350.193 522.721C350.441 524.774 351.173 526.716 352.268 528.415C353.005 529.625 353.857 530.587 354.718 531.558C355.698 532.529 356.792 533.372 358.011 533.986L441.357 580.612C444.984 582.614 449.062 583.655 453.204 583.635H454.065C457.95 583.503 461.737 582.379 465.065 580.369L543.516 534.467C544.006 534.224 544.372 533.858 544.862 533.62C545.719 533.015 546.575 532.406 547.308 531.677C548.458 530.636 549.516 529.506 550.481 528.287C551.091 527.44 551.704 526.597 552.194 525.745C552.556 525.145 552.808 524.535 553.046 523.926C553.293 523.33 553.664 522.598 553.907 521.874C554.026 521.627 554.026 521.384 554.15 521.145C554.89 518.794 555.261 516.341 555.249 513.875V423.648C555.249 421.957 555.001 420.381 554.64 418.81C554.397 417.715 554.022 416.744 553.66 415.773L552.927 414.325C552.684 413.716 552.309 413.235 551.947 412.626L551.214 411.54C550.605 410.688 549.992 409.964 549.382 409.117C547.392 406.796 544.988 404.866 542.293 403.422L462.99 358.982C461.624 358.209 460.191 357.559 458.709 357.039C456.721 356.439 454.669 356.075 452.595 355.954H451.006C450.401 355.954 449.911 355.954 449.302 356.068C447.898 356.194 446.507 356.438 445.144 356.797C444.902 356.916 444.659 356.916 444.412 357.044C442.58 357.529 440.867 358.372 439.154 359.339L360.703 405.245C358.426 406.583 356.432 408.353 354.833 410.454C354.228 411.301 353.614 412.149 353.124 412.996C352.882 413.482 352.639 413.844 352.392 414.33L352.025 415.411Z" fill="#D6F0FF"/>
<path d="M454.052 583.631H453.195C449.05 583.653 444.969 582.614 441.339 580.612L358.002 533.982C356.804 533.315 355.695 532.501 354.7 531.558C353.744 530.625 352.921 529.564 352.255 528.407C351.24 526.642 350.538 524.716 350.18 522.712C350.052 521.993 350.052 521.384 350.052 520.66V425.824C350.052 424.857 350.052 423.771 350.18 422.796C350.414 420.258 351.027 417.764 352.012 415.407L329.522 401.727L303.126 387.073C300.681 392.158 299.462 397.967 299.462 404.027V545.485C299.534 549.558 300.665 553.542 302.743 557.047C304.821 560.551 307.775 563.454 311.314 565.471L435.601 635.108C441.011 638.132 447.122 639.678 453.319 639.592H453.937C453.937 621.543 453.809 608.707 453.809 608.707L454.052 583.631Z" fill="#083042"/>
<path d="M454.052 583.631H453.195C449.05 583.653 444.969 582.614 441.339 580.612L358.002 533.982C356.804 533.315 355.695 532.501 354.7 531.558C353.744 530.625 352.921 529.564 352.255 528.407C351.24 526.642 350.538 524.716 350.18 522.712C350.052 521.993 350.052 521.384 350.052 520.66V425.824C350.052 424.857 350.052 423.771 350.18 422.796C350.414 420.258 351.027 417.764 352.012 415.407L329.522 401.727L303.126 387.073C300.681 392.158 299.462 397.967 299.462 404.027V545.485C299.534 549.558 300.665 553.542 302.743 557.047C304.821 560.551 307.775 563.454 311.314 565.471L435.601 635.108C441.011 638.132 447.122 639.678 453.319 639.592H453.937C453.937 621.543 453.809 608.707 453.809 608.707L454.052 583.631Z" fill="#041619"/>
<path d="M586.271 370.966L467.978 304.711C462.553 301.673 456.427 300.109 450.209 300.173C443.992 300.238 437.899 301.928 432.538 305.077L315.477 373.513C310.045 376.671 305.696 381.4 303.003 387.077L329.531 401.732L352.012 415.411L352.374 414.325C352.621 413.835 352.864 413.354 353.107 412.992C353.597 412.145 354.21 411.297 354.819 410.45C356.408 408.388 358.364 406.698 360.69 405.241L439.137 359.335C440.814 358.393 442.567 357.628 444.394 357.039C444.641 356.92 444.884 356.92 445.127 356.792C446.489 356.421 447.874 356.18 449.28 356.068C449.889 356.068 450.379 355.945 450.993 355.945H452.582C454.652 356.077 456.7 356.435 458.691 357.031C460.198 357.507 461.624 358.156 462.968 358.977L542.271 403.427C544.948 404.9 547.349 406.825 549.369 409.117C549.974 409.84 550.592 410.692 551.197 411.535L551.934 412.621L572.216 399.185L599.712 382.835C596.167 378.108 591.647 373.87 586.271 370.966Z" fill="#3DDB85"/>
<path d="M586.271 370.966L467.978 304.711C462.553 301.673 456.427 300.109 450.209 300.173C443.992 300.238 437.899 301.928 432.538 305.077L315.477 373.513C310.045 376.671 305.696 381.4 303.003 387.077L329.531 401.732L352.012 415.411L352.374 414.325C352.621 413.835 352.864 413.354 353.107 412.992C353.597 412.145 354.21 411.297 354.819 410.45C356.408 408.388 358.364 406.698 360.69 405.241L439.137 359.335C440.814 358.393 442.567 357.628 444.394 357.039C444.641 356.92 444.884 356.92 445.127 356.792C446.489 356.421 447.874 356.18 449.28 356.068C449.889 356.068 450.379 355.945 450.993 355.945H452.582C454.652 356.077 456.7 356.435 458.691 357.031C460.198 357.507 461.624 358.156 462.968 358.977L542.271 403.427C544.948 404.9 547.349 406.825 549.369 409.117C549.974 409.84 550.592 410.692 551.197 411.535L551.934 412.621L572.216 399.185L599.712 382.835C596.167 378.108 591.647 373.87 586.271 370.966Z" fill="#37BF6E"/>
<path d="M551.814 412.868C552.181 413.469 552.428 413.954 552.79 414.563L553.527 416.016C554.554 418.514 555.093 421.185 555.116 423.886V514.118C555.126 516.583 554.754 519.034 554.013 521.384C553.894 521.622 553.894 521.869 553.77 522.108C553.538 522.816 553.253 523.507 552.918 524.173C552.666 524.769 552.3 525.378 552.057 525.983C551.572 526.835 550.958 527.678 550.345 528.53C549.388 529.749 548.326 530.882 547.171 531.916C546.438 532.644 545.582 533.249 544.725 533.858C544.236 534.096 543.874 534.463 543.384 534.705L464.928 580.603C461.554 582.507 457.794 583.627 453.928 583.878V608.946C453.928 608.946 453.928 621.786 454.052 639.831C460.04 639.722 465.896 638.053 471.042 634.988L588.102 566.553C598.983 560.139 605.582 548.508 605.459 536.038V401.361C605.339 394.819 603.141 388.64 599.478 383.312L571.974 399.666L551.814 412.868Z" fill="#4285F4"/>
<path d="M551.814 412.868C552.181 413.469 552.428 413.954 552.79 414.563L553.527 416.016C554.554 418.514 555.093 421.185 555.116 423.886V514.118C555.126 516.583 554.754 519.034 554.013 521.384C553.894 521.622 553.894 521.869 553.77 522.108C553.538 522.816 553.253 523.507 552.918 524.173C552.666 524.769 552.3 525.378 552.057 525.983C551.572 526.835 550.958 527.678 550.345 528.53C549.388 529.749 548.326 530.882 547.171 531.916C546.438 532.644 545.582 533.249 544.725 533.858C544.236 534.096 543.874 534.463 543.384 534.705L464.928 580.603C461.554 582.507 457.794 583.627 453.928 583.878V608.946C453.928 608.946 453.928 621.786 454.052 639.831C460.04 639.722 465.896 638.053 471.042 634.988L588.102 566.553C598.983 560.139 605.582 548.508 605.459 536.038V401.361C605.339 394.819 603.141 388.64 599.478 383.312L571.974 399.666L551.814 412.868Z" fill="#3870B2"/>
<path d="M444.531 357.163C442.695 357.649 440.982 358.496 439.278 359.458L360.823 405.365L439.269 359.467C440.9 358.452 442.669 357.679 444.522 357.172L444.531 357.163Z" fill="#D6F0FF"/>
<path opacity="0.1" d="M444.531 357.163C442.695 357.649 440.982 358.496 439.278 359.458L360.823 405.365L439.269 359.467C440.9 358.452 442.669 357.679 444.522 357.172L444.531 357.163Z" fill="black"/>
<path d="M553.527 415.901C553.902 416.89 554.226 417.898 554.498 418.92C554.255 417.953 553.88 416.987 553.518 415.901H553.527Z" fill="#D6F0FF"/>
<path opacity="0.1" d="M553.527 415.901C553.902 416.89 554.226 417.898 554.498 418.92C554.255 417.953 553.88 416.987 553.518 415.901H553.527Z" fill="black"/>
<path d="M1027.13 346.227H1071.56V520.091C1071.48 536.028 1068.1 549.752 1061.42 561.263C1054.74 572.693 1045.4 581.507 1033.41 587.705C1021.49 593.822 1007.61 596.881 991.75 596.881C977.262 596.881 964.222 594.305 952.631 589.153C941.121 583.921 931.985 576.194 925.223 565.972C918.462 555.749 915.081 543.031 915.081 527.818H959.634C959.714 534.499 961.163 540.254 963.98 545.084C966.878 549.913 970.862 553.616 975.934 556.192C981.005 558.768 986.84 560.055 993.441 560.055C1000.6 560.055 1006.68 558.566 1011.67 555.588C1016.66 552.529 1020.45 548.022 1023.02 542.065C1025.68 536.109 1027.05 528.784 1027.13 520.091V346.227ZM1200.33 597.122C1181.73 597.122 1165.67 593.259 1152.15 585.531C1138.71 577.723 1128.37 566.696 1121.12 552.449C1113.88 538.121 1110.26 521.258 1110.26 501.859C1110.26 482.783 1113.88 466.04 1121.12 451.632C1128.45 437.143 1138.67 425.875 1151.79 417.825C1164.91 409.696 1180.32 405.631 1198.03 405.631C1209.46 405.631 1220.25 407.482 1230.39 411.185C1240.61 414.807 1249.63 420.441 1257.44 428.088C1265.32 435.735 1271.52 445.474 1276.03 457.307C1280.54 469.059 1282.79 483.064 1282.79 499.324V512.726H1130.78V483.266H1240.89C1240.81 474.894 1239 467.449 1235.46 460.929C1231.92 454.329 1226.97 449.137 1220.61 445.354C1214.33 441.571 1207.01 439.679 1198.64 439.679C1189.7 439.679 1181.85 441.852 1175.09 446.199C1168.33 450.465 1163.06 456.099 1159.28 463.102C1155.57 470.025 1153.68 477.631 1153.6 485.922V511.639C1153.6 522.425 1155.57 531.682 1159.52 539.409C1163.46 547.056 1168.97 552.932 1176.06 557.037C1183.14 561.062 1191.43 563.074 1200.93 563.074C1207.29 563.074 1213.04 562.188 1218.2 560.418C1223.35 558.566 1227.81 555.87 1231.6 552.328C1235.38 548.786 1238.24 544.4 1240.17 539.168L1280.98 543.756C1278.4 554.542 1273.49 563.959 1266.25 572.009C1259.09 579.977 1249.91 586.175 1238.72 590.602C1227.53 594.949 1214.73 597.122 1200.33 597.122ZM1412.37 408.045V441.852H1305.76V408.045H1412.37ZM1332.08 363.614H1375.79V537.719C1375.79 543.595 1376.68 548.102 1378.45 551.241C1380.3 554.3 1382.71 556.393 1385.69 557.52C1388.67 558.647 1391.97 559.21 1395.59 559.21C1398.33 559.21 1400.82 559.009 1403.08 558.607C1405.41 558.204 1407.18 557.842 1408.39 557.52L1415.75 591.689C1413.42 592.494 1410.08 593.379 1405.73 594.345C1401.47 595.311 1396.23 595.875 1390.04 596.036C1379.09 596.357 1369.23 594.707 1360.46 591.085C1351.68 587.383 1344.72 581.668 1339.57 573.94C1334.5 566.213 1332 556.554 1332.08 544.963V363.614ZM1448.93 663.045V408.045H1491.91V438.713H1494.45C1496.7 434.205 1499.88 429.416 1503.98 424.345C1508.09 419.194 1513.64 414.807 1520.65 411.185C1527.65 407.482 1536.58 405.631 1547.45 405.631C1561.78 405.631 1574.7 409.293 1586.21 416.618C1597.8 423.862 1606.97 434.608 1613.74 448.855C1620.58 463.022 1624 480.408 1624 501.014C1624 521.379 1620.66 538.685 1613.98 552.932C1607.3 567.179 1598.2 578.045 1586.69 585.531C1575.18 593.017 1562.14 596.76 1547.57 596.76C1536.95 596.76 1528.13 594.989 1521.13 591.447C1514.13 587.906 1508.49 583.64 1504.23 578.649C1500.04 573.578 1496.78 568.789 1494.45 564.281H1492.63V663.045H1448.93ZM1491.79 500.773C1491.79 512.766 1493.48 523.27 1496.86 532.286C1500.32 541.301 1505.27 548.344 1511.71 553.415C1518.23 558.405 1526.12 560.901 1535.38 560.901C1545.04 560.901 1553.12 558.325 1559.64 553.173C1566.16 547.941 1571.07 540.818 1574.37 531.803C1577.76 522.707 1579.45 512.364 1579.45 500.773C1579.45 489.262 1577.8 479.04 1574.5 470.105C1571.2 461.17 1566.29 454.168 1559.77 449.097C1553.25 444.026 1545.12 441.49 1535.38 441.49C1526.04 441.49 1518.11 443.945 1511.59 448.855C1505.07 453.765 1500.12 460.647 1496.74 469.501C1493.44 478.356 1491.79 488.779 1491.79 500.773ZM1714.79 597.243C1703.04 597.243 1692.46 595.15 1683.04 590.964C1673.7 586.698 1666.3 580.42 1660.82 572.129C1655.43 563.839 1652.73 553.616 1652.73 541.462C1652.73 530.998 1654.67 522.345 1658.53 515.503C1662.39 508.661 1667.67 503.188 1674.35 499.082C1681.03 494.977 1688.55 491.878 1696.92 489.786C1705.38 487.612 1714.11 486.043 1723.12 485.077C1733.99 483.95 1742.8 482.944 1749.57 482.058C1756.33 481.092 1761.24 479.643 1764.3 477.712C1767.44 475.699 1769.01 472.6 1769.01 468.415V467.69C1769.01 458.595 1766.31 451.552 1760.92 446.561C1755.52 441.571 1747.76 439.075 1737.61 439.075C1726.91 439.075 1718.42 441.41 1712.14 446.078C1705.94 450.747 1701.75 456.26 1699.58 462.619L1658.77 456.824C1661.99 445.555 1667.3 436.137 1674.71 428.571C1682.11 420.924 1691.17 415.209 1701.87 411.426C1712.58 407.562 1724.41 405.631 1737.37 405.631C1746.31 405.631 1755.2 406.677 1764.05 408.77C1772.91 410.863 1781 414.324 1788.32 419.153C1795.65 423.902 1801.52 430.382 1805.95 438.592C1810.46 446.803 1812.71 457.065 1812.71 469.381V593.5H1770.7V568.024H1769.25C1766.59 573.176 1762.85 578.005 1758.02 582.513C1753.27 586.94 1747.27 590.522 1740.03 593.259C1732.86 595.915 1724.45 597.243 1714.79 597.243ZM1726.14 565.126C1734.92 565.126 1742.52 563.396 1748.96 559.935C1755.4 556.393 1760.35 551.724 1763.81 545.929C1767.36 540.134 1769.13 533.815 1769.13 526.973V505.119C1767.76 506.246 1765.42 507.293 1762.12 508.259C1758.9 509.224 1755.28 510.07 1751.26 510.794C1747.23 511.518 1743.25 512.162 1739.3 512.726C1735.36 513.289 1731.94 513.772 1729.04 514.175C1722.52 515.06 1716.69 516.509 1711.53 518.521C1706.38 520.534 1702.32 523.351 1699.34 526.973C1696.36 530.515 1694.87 535.103 1694.87 540.737C1694.87 548.786 1697.81 554.864 1703.69 558.969C1709.56 563.074 1717.05 565.126 1726.14 565.126ZM1937.56 597.122C1919.04 597.122 1903.15 593.057 1889.86 584.928C1876.66 576.798 1866.48 565.569 1859.32 551.241C1852.23 536.833 1848.69 520.252 1848.69 501.497C1848.69 482.662 1852.31 466.04 1859.56 451.632C1866.8 437.143 1877.03 425.875 1890.23 417.825C1903.51 409.696 1919.2 405.631 1937.31 405.631C1952.37 405.631 1965.69 408.408 1977.28 413.962C1988.95 419.435 1998.25 427.203 2005.17 437.264C2012.09 447.245 2016.04 458.917 2017 472.278H1975.23C1973.54 463.344 1969.51 455.898 1963.15 449.942C1956.87 443.905 1948.46 440.886 1937.92 440.886C1928.98 440.886 1921.14 443.301 1914.37 448.131C1907.61 452.88 1902.34 459.722 1898.56 468.656C1894.86 477.591 1893 488.296 1893 500.773C1893 513.41 1894.86 524.277 1898.56 533.372C1902.26 542.387 1907.45 549.35 1914.13 554.26C1920.89 559.089 1928.82 561.504 1937.92 561.504C1944.36 561.504 1950.11 560.297 1955.18 557.882C1960.34 555.387 1964.64 551.805 1968.1 547.136C1971.56 542.468 1973.94 536.793 1975.23 530.112H2017C2015.96 543.232 2012.09 554.864 2005.41 565.006C1998.73 575.067 1989.63 582.955 1978.12 588.67C1966.61 594.305 1953.09 597.122 1937.56 597.122ZM2092.74 535.304L2092.61 482.541H2099.62L2166.27 408.045H2217.34L2135.36 499.324H2126.3L2092.74 535.304ZM2052.89 593.5V346.227H2096.6V593.5H2052.89ZM2169.28 593.5L2108.91 509.104L2138.37 478.315L2221.56 593.5H2169.28ZM2544.39 429.658H2499.23C2497.94 422.252 2495.57 415.692 2492.11 409.977C2488.65 404.182 2484.34 399.272 2479.19 395.247C2474.04 391.223 2468.16 388.204 2461.56 386.192C2455.04 384.099 2448 383.053 2440.43 383.053C2426.99 383.053 2415.08 386.433 2404.69 393.195C2394.31 399.875 2386.18 409.696 2380.3 422.655C2374.43 435.534 2371.49 451.27 2371.49 469.864C2371.49 488.779 2374.43 504.717 2380.3 517.676C2386.26 530.555 2394.39 540.295 2404.69 546.895C2415.08 553.415 2426.95 556.675 2440.31 556.675C2447.72 556.675 2454.64 555.709 2461.08 553.777C2467.6 551.765 2473.43 548.827 2478.59 544.963C2483.82 541.099 2488.21 536.35 2491.75 530.716C2495.37 525.081 2497.86 518.642 2499.23 511.398L2544.39 511.639C2542.7 523.391 2539.04 534.419 2533.4 544.722C2527.85 555.025 2520.56 564.12 2511.55 572.009C2502.53 579.816 2491.99 585.934 2479.91 590.361C2467.84 594.707 2454.44 596.881 2439.71 596.881C2417.98 596.881 2398.58 591.85 2381.51 581.788C2364.45 571.727 2351.01 557.198 2341.19 538.202C2331.37 519.205 2326.46 496.426 2326.46 469.864C2326.46 443.221 2331.41 420.441 2341.31 401.526C2351.21 382.529 2364.69 368 2381.75 357.939C2398.82 347.877 2418.14 342.847 2439.71 342.847C2453.47 342.847 2466.27 344.778 2478.1 348.642C2489.94 352.506 2500.48 358.18 2509.74 365.666C2518.99 373.071 2526.6 382.167 2532.56 392.953C2538.59 403.659 2542.54 415.893 2544.39 429.658ZM2664.37 597.122C2646.26 597.122 2630.57 593.138 2617.28 585.169C2604 577.2 2593.7 566.052 2586.38 551.724C2579.13 537.397 2575.51 520.654 2575.51 501.497C2575.51 482.34 2579.13 465.557 2586.38 451.149C2593.7 436.741 2604 425.553 2617.28 417.584C2630.57 409.615 2646.26 405.631 2664.37 405.631C2682.48 405.631 2698.18 409.615 2711.46 417.584C2724.74 425.553 2735 436.741 2742.25 451.149C2749.57 465.557 2753.24 482.34 2753.24 501.497C2753.24 520.654 2749.57 537.397 2742.25 551.724C2735 566.052 2724.74 577.2 2711.46 585.169C2698.18 593.138 2682.48 597.122 2664.37 597.122ZM2664.61 562.108C2674.43 562.108 2682.64 559.411 2689.24 554.018C2695.85 548.545 2700.76 541.22 2703.98 532.044C2707.28 522.868 2708.93 512.645 2708.93 501.376C2708.93 490.027 2707.28 479.764 2703.98 470.588C2700.76 461.331 2695.85 453.966 2689.24 448.493C2682.64 443.019 2674.43 440.283 2664.61 440.283C2654.55 440.283 2646.18 443.019 2639.5 448.493C2632.9 453.966 2627.95 461.331 2624.65 470.588C2621.43 479.764 2619.82 490.027 2619.82 501.376C2619.82 512.645 2621.43 522.868 2624.65 532.044C2627.95 541.22 2632.9 548.545 2639.5 554.018C2646.18 559.411 2654.55 562.108 2664.61 562.108ZM2790.33 593.5V408.045H2832.11V439.558H2834.28C2838.15 428.933 2844.55 420.643 2853.48 414.686C2862.41 408.649 2873.08 405.631 2885.48 405.631C2898.03 405.631 2908.62 408.689 2917.23 414.807C2925.92 420.844 2932.04 429.094 2935.58 439.558H2937.51C2941.62 429.255 2948.54 421.045 2958.28 414.928C2968.1 408.73 2979.73 405.631 2993.17 405.631C3010.24 405.631 3024.16 411.024 3034.95 421.81C3045.74 432.596 3051.13 448.332 3051.13 469.018V593.5H3007.3V475.78C3007.3 464.269 3004.24 455.858 2998.12 450.545C2992.01 445.152 2984.52 442.456 2975.67 442.456C2965.12 442.456 2956.87 445.756 2950.92 452.357C2945.04 458.876 2942.1 467.368 2942.1 477.832V593.5H2899.24V473.969C2899.24 464.39 2896.34 456.743 2890.55 451.028C2884.83 445.313 2877.35 442.456 2868.09 442.456C2861.81 442.456 2856.1 444.066 2850.94 447.286C2845.79 450.425 2841.69 454.892 2838.63 460.688C2835.57 466.402 2834.04 473.083 2834.04 480.73V593.5H2790.33ZM3095.47 663.045V408.045H3138.45V438.713H3140.99C3143.24 434.205 3146.42 429.416 3150.53 424.345C3154.63 419.194 3160.19 414.807 3167.19 411.185C3174.19 407.482 3183.13 405.631 3193.99 405.631C3208.32 405.631 3221.24 409.293 3232.75 416.618C3244.34 423.862 3253.52 434.608 3260.28 448.855C3267.12 463.022 3270.54 480.408 3270.54 501.014C3270.54 521.379 3267.2 538.685 3260.52 552.932C3253.84 567.179 3244.74 578.045 3233.23 585.531C3221.72 593.017 3208.68 596.76 3194.11 596.76C3183.49 596.76 3174.67 594.989 3167.67 591.447C3160.67 587.906 3155.03 583.64 3150.77 578.649C3146.58 573.578 3143.32 568.789 3140.99 564.281H3139.18V663.045H3095.47ZM3138.33 500.773C3138.33 512.766 3140.02 523.27 3143.4 532.286C3146.86 541.301 3151.81 548.344 3158.25 553.415C3164.77 558.405 3172.66 560.901 3181.92 560.901C3191.58 560.901 3199.67 558.325 3206.19 553.173C3212.71 547.941 3217.62 540.818 3220.92 531.803C3224.3 522.707 3225.99 512.364 3225.99 500.773C3225.99 489.262 3224.34 479.04 3221.04 470.105C3217.74 461.17 3212.83 454.168 3206.31 449.097C3199.79 444.026 3191.66 441.49 3181.92 441.49C3172.58 441.49 3164.65 443.945 3158.13 448.855C3151.61 453.765 3146.66 460.647 3143.28 469.501C3139.98 478.356 3138.33 488.779 3138.33 500.773ZM3388.86 597.122C3370.75 597.122 3355.06 593.138 3341.78 585.169C3328.5 577.2 3318.19 566.052 3310.87 551.724C3303.62 537.397 3300 520.654 3300 501.497C3300 482.34 3303.62 465.557 3310.87 451.149C3318.19 436.741 3328.5 425.553 3341.78 417.584C3355.06 409.615 3370.75 405.631 3388.86 405.631C3406.98 405.631 3422.67 409.615 3435.95 417.584C3449.23 425.553 3459.5 436.741 3466.74 451.149C3474.07 465.557 3477.73 482.34 3477.73 501.497C3477.73 520.654 3474.07 537.397 3466.74 551.724C3459.5 566.052 3449.23 577.2 3435.95 585.169C3422.67 593.138 3406.98 597.122 3388.86 597.122ZM3389.11 562.108C3398.93 562.108 3407.14 559.411 3413.74 554.018C3420.34 548.545 3425.25 541.22 3428.47 532.044C3431.77 522.868 3433.42 512.645 3433.42 501.376C3433.42 490.027 3431.77 479.764 3428.47 470.588C3425.25 461.331 3420.34 453.966 3413.74 448.493C3407.14 443.019 3398.93 440.283 3389.11 440.283C3379.04 440.283 3370.67 443.019 3363.99 448.493C3357.39 453.966 3352.44 461.331 3349.14 470.588C3345.92 479.764 3344.31 490.027 3344.31 501.376C3344.31 512.645 3345.92 522.868 3349.14 532.044C3352.44 541.22 3357.39 548.545 3363.99 554.018C3370.67 559.411 3379.04 562.108 3389.11 562.108ZM3661.4 457.065L3621.56 461.412C3620.43 457.387 3618.46 453.604 3615.64 450.062C3612.91 446.521 3609.2 443.663 3604.53 441.49C3599.87 439.317 3594.15 438.23 3587.39 438.23C3578.29 438.23 3570.65 440.202 3564.45 444.146C3558.33 448.09 3555.31 453.202 3555.39 459.48C3555.31 464.873 3557.29 469.26 3561.31 472.641C3565.42 476.021 3572.18 478.798 3581.59 480.972L3613.23 487.733C3630.77 491.516 3643.81 497.513 3652.35 505.723C3660.96 513.933 3665.31 524.679 3665.39 537.96C3665.31 549.632 3661.89 559.935 3655.12 568.869C3648.44 577.723 3639.15 584.646 3627.23 589.636C3615.32 594.627 3601.64 597.122 3586.18 597.122C3563.48 597.122 3545.21 592.373 3531.37 582.875C3517.52 573.296 3509.27 559.975 3506.62 542.911L3549.24 538.805C3551.17 547.177 3555.27 553.495 3561.55 557.761C3567.83 562.027 3576 564.161 3586.06 564.161C3596.44 564.161 3604.78 562.027 3611.05 557.761C3617.41 553.495 3620.59 548.223 3620.59 541.945C3620.59 536.632 3618.54 532.245 3614.43 528.784C3610.41 525.323 3604.13 522.667 3595.6 520.815L3563.97 514.175C3546.18 510.472 3533.02 504.234 3524.48 495.46C3515.95 486.606 3511.73 475.418 3511.81 461.895C3511.73 450.465 3514.83 440.564 3521.1 432.193C3527.46 423.741 3536.28 417.222 3547.55 412.634C3558.9 407.965 3571.98 405.631 3586.79 405.631C3608.52 405.631 3625.62 410.259 3638.1 419.516C3650.66 428.772 3658.42 441.289 3661.4 457.065ZM3783.53 597.122C3764.94 597.122 3748.88 593.259 3735.35 585.531C3721.91 577.723 3711.57 566.696 3704.32 552.449C3697.08 538.121 3693.46 521.258 3693.46 501.859C3693.46 482.783 3697.08 466.04 3704.32 451.632C3711.65 437.143 3721.87 425.875 3734.99 417.825C3748.11 409.696 3763.53 405.631 3781.24 405.631C3792.67 405.631 3803.45 407.482 3813.59 411.185C3823.82 414.807 3832.83 420.441 3840.64 428.088C3848.53 435.735 3854.72 445.474 3859.23 457.307C3863.74 469.059 3865.99 483.064 3865.99 499.324V512.726H3713.98V483.266H3824.1C3824.02 474.894 3822.21 467.449 3818.66 460.929C3815.12 454.329 3810.17 449.137 3803.81 445.354C3797.54 441.571 3790.21 439.679 3781.84 439.679C3772.9 439.679 3765.06 441.852 3758.3 446.199C3751.53 450.465 3746.26 456.099 3742.48 463.102C3738.78 470.025 3736.88 477.631 3736.8 485.922V511.639C3736.8 522.425 3738.78 531.682 3742.72 539.409C3746.66 547.056 3752.18 552.932 3759.26 557.037C3766.34 561.062 3774.63 563.074 3784.13 563.074C3790.49 563.074 3796.25 562.188 3801.4 560.418C3806.55 558.566 3811.02 555.87 3814.8 552.328C3818.58 548.786 3821.44 544.4 3823.37 539.168L3864.18 543.756C3861.61 554.542 3856.7 563.959 3849.45 572.009C3842.29 579.977 3833.11 586.175 3821.92 590.602C3810.74 594.949 3797.94 597.122 3783.53 597.122Z" fill="black"/>
</svg>
