<svg width="2835" height="940" viewBox="0 0 2835 940" fill="none" xmlns="http://www.w3.org/2000/svg">
<rect width="2834.98" height="940" rx="80" fill="white"/>
<path d="M699.8 725.95H200V226.35H699.8L449.9 476.05L699.8 725.95Z" fill="url(#paint0_linear_2_3)"/>
<path d="M1304.6 224.75H1204.3L988.1 456.65V226.35H908.2V725.95H988.1V484.65L1205.9 725.95H1307.7L1077.4 467.55L1304.6 224.75Z" fill="black"/>
<path d="M1575.6 376.75C1547.4 361.05 1514.5 351.65 1480 351.65C1444 351.65 1411.1 359.45 1382.9 376.75C1354.7 394.05 1331.2 415.95 1315.5 444.15C1299.8 473.95 1292 506.85 1292 542.85C1292 578.85 1299.8 613.35 1315.5 641.55C1331.2 669.75 1353.1 693.25 1382.9 708.95C1411.1 724.65 1444 734.05 1480 734.05C1516 734.05 1548.9 726.25 1577.1 708.95C1605.3 693.25 1627.2 669.75 1642.9 641.55C1658.6 611.75 1666.4 578.85 1666.4 542.85C1666.4 506.85 1657 473.95 1641.3 444.15C1625.8 415.85 1603.8 392.35 1575.6 376.75ZM1569.4 606.85C1560 625.65 1547.5 639.75 1531.8 649.15C1516.1 660.15 1497.3 664.85 1477 664.85C1456.7 664.85 1437.8 660.15 1420.6 649.15C1404.9 638.15 1392.4 624.05 1383 606.85C1373.6 588.05 1370.5 567.65 1370.5 544.15C1370.5 520.65 1375.2 498.75 1384.6 481.45C1394 462.65 1406.5 448.55 1422.2 439.15C1437.9 428.15 1456.7 423.45 1478.6 423.45C1499 423.45 1517.8 428.15 1533.4 439.15C1549.1 450.15 1561.6 464.25 1571 481.45C1580.4 500.25 1583.5 520.65 1583.5 544.15C1583.5 567.65 1578.8 588.05 1569.4 606.85Z" fill="black"/>
<path d="M1827.9 268.65H1751.1V331.35C1751.1 340.75 1749.5 348.55 1743.3 353.25C1738.6 357.95 1730.8 361.05 1721.4 361.05H1683.8V426.85H1749.6V624.25C1749.6 644.65 1754.3 663.45 1762.1 679.05C1769.9 694.75 1782.5 707.25 1798.1 715.05C1813.8 724.45 1831 727.55 1852.9 727.55H1912.4V658.65H1868.5C1857.5 658.65 1848.1 655.55 1840.3 646.15C1834 638.35 1829.3 627.35 1829.3 614.85V426.85H1913.9V361.05H1829.3V268.65H1827.9Z" fill="black"/>
<path d="M2051.9 205.95H1973.6V725.95H2051.9V205.95Z" fill="black"/>
<path d="M2221.1 207.55H2141.2V289.05H2221.1V207.55Z" fill="black"/>
<path d="M2219.5 361.05H2141.2V727.45H2219.5V361.05Z" fill="black"/>
<path d="M2619.1 420.55C2608.1 398.65 2592.5 381.35 2572.1 370.45C2551.7 357.95 2528.2 351.65 2501.6 351.65C2473.4 351.65 2448.3 359.45 2426.4 372.05C2409.2 383.05 2395.1 398.65 2384.1 415.95V359.55H2308.9V725.95H2387.2V520.65C2387.2 500.25 2390.3 483.05 2398.2 467.35C2406 451.65 2417 440.75 2429.5 431.35C2443.6 423.55 2459.3 418.85 2478.1 418.85C2495.3 418.85 2507.9 421.95 2520.4 429.85C2532.9 437.75 2540.8 447.05 2547 459.65C2553.3 472.15 2556.4 487.85 2556.4 505.05V724.35H2634.7V495.65C2636.4 467.55 2630.2 442.55 2619.1 420.55Z" fill="black"/>
<defs>
<linearGradient id="paint0_linear_2_3" x1="699.755" y1="226.296" x2="200.05" y2="726.001" gradientUnits="userSpaceOnUse">
<stop offset="0.00343514" stop-color="#E44857"/>
<stop offset="0.4689" stop-color="#C711E1"/>
<stop offset="1" stop-color="#7F52FF"/>
</linearGradient>
</defs>
</svg>
