<svg width="800" height="800" viewBox="0 0 800 800" fill="none" xmlns="http://www.w3.org/2000/svg">
    <g clip-path="url(#clip0_79_24)">
        <path d="M403.5 -182C239.008 -182 -93.6488 -97.2758 -103 -96.5C-136.757 -93.6939 -21.6158 0.278729 -44.5 11.6727C-62.1358 20.4302 -10.2732 59.7696 -24.0001 73.9999C-48.9993 99.9515 -44.5153 207.048 -50 245C-52.6666 263.424 -92.3426 713.891 -92.5001 808C-92.5607 839.37 -79.0002 833.624 -79.0002 889C-79.0002 1053.36 -24.788 765.667 -24.0001 775C-21.2729 807.848 47.1522 923.809 53.4999 808C74.3478 851.273 103.592 811.379 150.5 823.5C166.742 827.682 348.97 829.409 372 830.5C381.757 830.924 389.488 830.5 489 830.5C588.512 830.5 641.485 889.485 651 889C677.666 887.745 856.379 799.691 873.5 795.267C920.711 783.085 852.228 760.879 873.5 717C884.197 694.939 809.355 655.933 811.81 624.8C812.343 618.012 812.567 509.788 812.567 401.709C812.567 293.612 810.783 168 811.792 178.8C809.307 147.164 818.542 -29.5152 807.5 -52C798.44 -70.4061 793.106 -28.4455 778.5 -42.5C752.434 -67.397 706.487 -91.0212 668.5 -96.5C650.094 -99.1606 651.679 -166.836 557.5 -167L403.5 -182Z"
              fill="url(#paint0_radial_79_24)"/>
        <path d="M407.5 -48C243.008 -48 -451.649 30.7243 -461 31.5C-494.757 34.3061 112.884 -107.894 90.0001 -96.5C-105.597 -356.521 -121.273 3.26964 -135 17.4999C-159.999 43.4515 -17.5153 239.548 -22.9999 277.5C-25.6665 295.924 -53.8424 537.891 -53.9999 632C-54.0605 663.37 -123.091 1077.9 -72.9999 519.709C-128.026 1132.9 -23.7878 1217.17 -22.9999 1226.5C-20.2727 1259.35 33.939 795.084 44.8478 817.69C65.6957 860.963 88.5924 1094.88 135.5 1107C151.742 1111.18 186.601 912.054 209.631 913.145C219.388 913.569 340.488 1063.5 440 1063.5C539.512 1063.5 617.375 913.751 626.89 913.266C653.556 912.012 669.04 909.933 686.161 905.509C733.372 893.327 881.228 957.024 902.5 913.145C913.197 891.084 809.854 773.933 812.309 742.8C812.842 736.012 813.066 627.787 813.066 519.709C813.066 411.612 812.824 303.588 812.291 296.8C809.806 265.163 1253.04 1141.98 1242 1119.5C1232.94 1101.09 1211.11 117.055 1196.5 103C1170.43 78.1031 784.987 -32.0212 747 -37.5C728.594 -40.1606 829.679 -77.3364 735.5 -77.5L599 -303L407.5 -48Z"
              fill="url(#paint1_radial_79_24)"/>
        <path d="M400.012 109.091C321.008 109.091 311.094 109.436 280.064 110.848C249.096 112.267 227.957 117.17 209.46 124.364C190.328 131.794 174.098 141.733 157.929 157.909C141.747 174.079 131.808 190.309 124.354 209.436C117.142 227.939 112.233 249.085 110.839 280.042C109.451 311.073 109.088 320.994 109.088 400C109.088 479.006 109.439 488.891 110.845 519.921C112.269 550.891 117.172 572.03 124.36 590.527C131.796 609.661 141.735 625.891 157.91 642.061C174.074 658.242 190.303 668.206 209.424 675.636C227.933 682.83 249.077 687.733 280.04 689.152C311.069 690.564 320.978 690.909 399.976 690.909C478.986 690.909 488.87 690.564 519.899 689.152C550.868 687.733 572.031 682.83 590.54 675.636C609.666 668.206 625.872 658.242 642.035 642.061C658.216 625.891 668.156 609.661 675.61 590.533C682.761 572.03 687.67 550.885 689.125 519.927C690.519 488.897 690.882 479.006 690.882 400C690.882 320.994 690.519 311.079 689.125 280.048C687.67 249.079 682.761 227.939 675.61 209.442C668.156 190.309 658.216 174.079 642.035 157.909C625.854 141.727 609.672 131.788 590.522 124.364C571.977 117.17 550.826 112.267 519.857 110.848C488.828 109.436 478.949 109.091 399.921 109.091H400.012ZM373.916 161.515C381.661 161.503 390.303 161.515 400.012 161.515C477.683 161.515 486.888 161.794 517.56 163.188C545.923 164.485 561.316 169.224 571.571 173.206C585.146 178.479 594.824 184.782 605 194.964C615.181 205.145 621.484 214.842 626.769 228.418C630.751 238.661 635.496 254.055 636.787 282.418C638.181 313.085 638.484 322.297 638.484 399.933C638.484 477.57 638.181 486.782 636.787 517.448C635.49 545.812 630.751 561.206 626.769 571.448C621.496 585.024 615.181 594.691 605 604.867C594.818 615.048 585.152 621.351 571.571 626.624C561.328 630.624 545.923 635.351 517.56 636.648C486.894 638.042 477.683 638.345 400.012 638.345C322.336 638.345 313.13 638.042 282.464 636.648C254.101 635.339 238.708 630.6 228.448 626.618C214.872 621.345 205.176 615.042 194.994 604.861C184.813 594.679 178.51 585.006 173.225 571.424C169.243 561.182 164.498 545.788 163.207 517.424C161.813 486.758 161.535 477.545 161.535 399.861C161.535 322.176 161.813 313.012 163.207 282.345C164.504 253.982 169.243 238.588 173.225 228.333C178.498 214.758 184.813 205.061 194.994 194.879C205.176 184.697 214.872 178.394 228.448 173.109C238.702 169.109 254.101 164.382 282.464 163.079C309.3 161.867 319.699 161.503 373.916 161.442V161.515ZM555.292 209.818C536.02 209.818 520.384 225.436 520.384 244.715C520.384 263.988 536.02 279.624 555.292 279.624C574.564 279.624 590.2 263.988 590.2 244.715C590.2 225.442 574.564 209.806 555.292 209.806V209.818ZM400.012 250.606C317.512 250.606 250.623 317.497 250.623 400C250.623 482.503 317.512 549.364 400.012 549.364C482.513 549.364 549.377 482.503 549.377 400C549.377 317.497 482.513 250.606 400.012 250.606ZM400.012 303.03C453.562 303.03 496.979 346.442 496.979 400C496.979 453.552 453.562 496.97 400.012 496.97C346.456 496.97 303.045 453.552 303.045 400C303.045 346.442 346.456 303.03 400.012 303.03Z"
              fill="white"/>
    </g>
    <defs>
        <radialGradient id="paint0_radial_79_24" cx="0" cy="0" r="1" gradientUnits="userSpaceOnUse"
                        gradientTransform="translate(215.378 854.551) rotate(-90) scale(780.78 726.363)">
            <stop stop-color="#FFDD55"/>
            <stop offset="0.1" stop-color="#FFDD55"/>
            <stop offset="0.5" stop-color="#FF543E"/>
            <stop offset="1" stop-color="#C837AB"/>
        </radialGradient>
        <radialGradient id="paint1_radial_79_24" cx="0" cy="0" r="1"
                        gradientTransform="matrix(68.5197 342.223 -1410.97 282.525 -125.932 62.8132)"
                        gradientUnits="userSpaceOnUse">
            <stop stop-color="#3771C8"/>
            <stop offset="0.128" stop-color="#3771C8"/>
            <stop offset="1" stop-color="#6600FF" stop-opacity="0"/>
        </radialGradient>
        <clipPath id="clip0_79_24">
            <rect width="800" height="800" rx="100" fill="white"/>
        </clipPath>
    </defs>
</svg>