<svg width="159" height="104" viewBox="0 0 159 104" fill="none" xmlns="http://www.w3.org/2000/svg">
    <rect x="50" y="8" width="59" height="59" rx="12" fill="#EBF5FF"/>
    <path d="M62 36.4522V20.0605L78.3917 36.4522H62ZM62 38.5478V55H62.0416L78.4938 38.5478H62ZM80.951 36.0482L97 20H64.9028L80.9518 36.049L80.951 36.0482ZM80.9729 39.0334L65.0049 55H96.938L80.9729 39.0334Z"
          fill="url(#paint0_radial_45_28)"/>
    <path d="M16.412 90L12.646 85.646V90H11.05V80.27H12.646V84.708L16.426 80.27H18.428L14.2 85.142L18.498 90H16.412ZM23.2554 90.126C22.5274 90.126 21.8694 89.9627 21.2814 89.636C20.6934 89.3 20.2314 88.8333 19.8954 88.236C19.5594 87.6293 19.3914 86.9293 19.3914 86.136C19.3914 85.352 19.564 84.6567 19.9094 84.05C20.2547 83.4433 20.726 82.9767 21.3234 82.65C21.9207 82.3233 22.588 82.16 23.3254 82.16C24.0627 82.16 24.73 82.3233 25.3274 82.65C25.9247 82.9767 26.396 83.4433 26.7414 84.05C27.0867 84.6567 27.2594 85.352 27.2594 86.136C27.2594 86.92 27.082 87.6153 26.7274 88.222C26.3727 88.8287 25.8874 89.3 25.2714 89.636C24.6647 89.9627 23.9927 90.126 23.2554 90.126ZM23.2554 88.74C23.666 88.74 24.0487 88.642 24.4034 88.446C24.7674 88.25 25.0614 87.956 25.2854 87.564C25.5094 87.172 25.6214 86.696 25.6214 86.136C25.6214 85.576 25.514 85.1047 25.2994 84.722C25.0847 84.33 24.8 84.036 24.4454 83.84C24.0907 83.644 23.708 83.546 23.2974 83.546C22.8867 83.546 22.504 83.644 22.1494 83.84C21.804 84.036 21.5287 84.33 21.3234 84.722C21.118 85.1047 21.0154 85.576 21.0154 86.136C21.0154 86.9667 21.2254 87.6107 21.6454 88.068C22.0747 88.516 22.6114 88.74 23.2554 88.74ZM30.6991 83.588V87.858C30.6991 88.1473 30.7644 88.3573 30.8951 88.488C31.0351 88.6093 31.2684 88.67 31.5951 88.67H32.5751V90H31.3151C30.5964 90 30.0458 89.832 29.6631 89.496C29.2804 89.16 29.0891 88.614 29.0891 87.858V83.588H28.1791V82.286H29.0891V80.368H30.6991V82.286H32.5751V83.588H30.6991ZM35.6421 79.64V90H34.0461V79.64H35.6421ZM38.5495 81.264C38.2602 81.264 38.0175 81.166 37.8215 80.97C37.6255 80.774 37.5275 80.5313 37.5275 80.242C37.5275 79.9527 37.6255 79.71 37.8215 79.514C38.0175 79.318 38.2602 79.22 38.5495 79.22C38.8295 79.22 39.0675 79.318 39.2635 79.514C39.4595 79.71 39.5575 79.9527 39.5575 80.242C39.5575 80.5313 39.4595 80.774 39.2635 80.97C39.0675 81.166 38.8295 81.264 38.5495 81.264ZM39.3335 82.286V90H37.7375V82.286H39.3335ZM45.3209 82.16C45.9276 82.16 46.4689 82.286 46.9449 82.538C47.4302 82.79 47.8082 83.1633 48.0789 83.658C48.3496 84.1527 48.4849 84.75 48.4849 85.45V90H46.9029V85.688C46.9029 84.9973 46.7302 84.47 46.3849 84.106C46.0396 83.7327 45.5682 83.546 44.9709 83.546C44.3736 83.546 43.8976 83.7327 43.5429 84.106C43.1976 84.47 43.0249 84.9973 43.0249 85.688V90H41.4289V82.286H43.0249V83.168C43.2862 82.8507 43.6176 82.6033 44.0189 82.426C44.4296 82.2487 44.8636 82.16 45.3209 82.16ZM64.4054 80.27V90H62.8094V83.336L59.8414 90H58.7354L55.7534 83.336V90H54.1574V80.27H55.8794L59.2954 87.9L62.6974 80.27H64.4054ZM73.4891 82.286V90H71.8931V89.09C71.6411 89.4073 71.3098 89.6593 70.8991 89.846C70.4978 90.0233 70.0685 90.112 69.6111 90.112C69.0045 90.112 68.4585 89.986 67.9731 89.734C67.4971 89.482 67.1191 89.1087 66.8391 88.614C66.5685 88.1193 66.4331 87.522 66.4331 86.822V82.286H68.0151V86.584C68.0151 87.2747 68.1878 87.8067 68.5331 88.18C68.8785 88.544 69.3498 88.726 69.9471 88.726C70.5445 88.726 71.0158 88.544 71.3611 88.18C71.7158 87.8067 71.8931 87.2747 71.8931 86.584V82.286H73.4891ZM77.1909 79.64V90H75.5949V79.64H77.1909ZM81.1483 83.588V87.858C81.1483 88.1473 81.2137 88.3573 81.3443 88.488C81.4843 88.6093 81.7177 88.67 82.0443 88.67H83.0243V90H81.7643C81.0457 90 80.495 89.832 80.1123 89.496C79.7297 89.16 79.5383 88.614 79.5383 87.858V83.588H78.6283V82.286H79.5383V80.368H81.1483V82.286H83.0243V83.588H81.1483ZM85.3073 81.264C85.018 81.264 84.7753 81.166 84.5793 80.97C84.3833 80.774 84.2853 80.5313 84.2853 80.242C84.2853 79.9527 84.3833 79.71 84.5793 79.514C84.7753 79.318 85.018 79.22 85.3073 79.22C85.5873 79.22 85.8253 79.318 86.0213 79.514C86.2173 79.71 86.3153 79.9527 86.3153 80.242C86.3153 80.5313 86.2173 80.774 86.0213 80.97C85.8253 81.166 85.5873 81.264 85.3073 81.264ZM86.0913 82.286V90H84.4953V82.286H86.0913ZM89.7827 83.42C90.0534 83.0653 90.4221 82.7667 90.8887 82.524C91.3554 82.2813 91.8827 82.16 92.4707 82.16C93.1427 82.16 93.7541 82.328 94.3047 82.664C94.8647 82.9907 95.3034 83.4527 95.6207 84.05C95.9381 84.6473 96.0967 85.3333 96.0967 86.108C96.0967 86.8827 95.9381 87.578 95.6207 88.194C95.3034 88.8007 94.8647 89.2767 94.3047 89.622C93.7541 89.958 93.1427 90.126 92.4707 90.126C91.8827 90.126 91.3601 90.0093 90.9027 89.776C90.4454 89.5333 90.0721 89.2347 89.7827 88.88V93.668H88.1867V82.286H89.7827V83.42ZM94.4727 86.108C94.4727 85.576 94.3607 85.1187 94.1367 84.736C93.9221 84.344 93.6327 84.05 93.2687 83.854C92.9141 83.6487 92.5314 83.546 92.1207 83.546C91.7194 83.546 91.3367 83.6487 90.9727 83.854C90.6181 84.0593 90.3287 84.358 90.1047 84.75C89.8901 85.142 89.7827 85.604 89.7827 86.136C89.7827 86.668 89.8901 87.1347 90.1047 87.536C90.3287 87.928 90.6181 88.2267 90.9727 88.432C91.3367 88.6373 91.7194 88.74 92.1207 88.74C92.5314 88.74 92.9141 88.6373 93.2687 88.432C93.6327 88.2173 93.9221 87.9093 94.1367 87.508C94.3607 87.1067 94.4727 86.64 94.4727 86.108ZM99.271 79.64V90H97.675V79.64H99.271ZM100.834 86.108C100.834 85.3333 100.993 84.6473 101.31 84.05C101.637 83.4527 102.076 82.9907 102.626 82.664C103.186 82.328 103.802 82.16 104.474 82.16C105.081 82.16 105.608 82.2813 106.056 82.524C106.514 82.7573 106.878 83.0513 107.148 83.406V82.286H108.758V90H107.148V88.852C106.878 89.216 106.509 89.5193 106.042 89.762C105.576 90.0047 105.044 90.126 104.446 90.126C103.784 90.126 103.177 89.958 102.626 89.622C102.076 89.2767 101.637 88.8007 101.31 88.194C100.993 87.578 100.834 86.8827 100.834 86.108ZM107.148 86.136C107.148 85.604 107.036 85.142 106.812 84.75C106.598 84.358 106.313 84.0593 105.958 83.854C105.604 83.6487 105.221 83.546 104.81 83.546C104.4 83.546 104.017 83.6487 103.662 83.854C103.308 84.05 103.018 84.344 102.794 84.736C102.58 85.1187 102.472 85.576 102.472 86.108C102.472 86.64 102.58 87.1067 102.794 87.508C103.018 87.9093 103.308 88.2173 103.662 88.432C104.026 88.6373 104.409 88.74 104.81 88.74C105.221 88.74 105.604 88.6373 105.958 88.432C106.313 88.2267 106.598 87.928 106.812 87.536C107.036 87.1347 107.148 86.668 107.148 86.136ZM112.717 83.588V87.858C112.717 88.1473 112.782 88.3573 112.913 88.488C113.053 88.6093 113.286 88.67 113.613 88.67H114.593V90H113.333C112.614 90 112.063 89.832 111.681 89.496C111.298 89.16 111.107 88.614 111.107 87.858V83.588H110.197V82.286H111.107V80.368H112.717V82.286H114.593V83.588H112.717ZM119.298 83.588H117.87V90H116.26V83.588H115.35V82.286H116.26V81.74C116.26 80.8533 116.493 80.2093 116.96 79.808C117.436 79.3973 118.178 79.192 119.186 79.192V80.522C118.7 80.522 118.36 80.6153 118.164 80.802C117.968 80.9793 117.87 81.292 117.87 81.74V82.286H119.298V83.588ZM124.058 90.126C123.33 90.126 122.672 89.9627 122.084 89.636C121.496 89.3 121.034 88.8333 120.698 88.236C120.362 87.6293 120.194 86.9293 120.194 86.136C120.194 85.352 120.367 84.6567 120.712 84.05C121.057 83.4433 121.529 82.9767 122.126 82.65C122.723 82.3233 123.391 82.16 124.128 82.16C124.865 82.16 125.533 82.3233 126.13 82.65C126.727 82.9767 127.199 83.4433 127.544 84.05C127.889 84.6567 128.062 85.352 128.062 86.136C128.062 86.92 127.885 87.6153 127.53 88.222C127.175 88.8287 126.69 89.3 126.074 89.636C125.467 89.9627 124.795 90.126 124.058 90.126ZM124.058 88.74C124.469 88.74 124.851 88.642 125.206 88.446C125.57 88.25 125.864 87.956 126.088 87.564C126.312 87.172 126.424 86.696 126.424 86.136C126.424 85.576 126.317 85.1047 126.102 84.722C125.887 84.33 125.603 84.036 125.248 83.84C124.893 83.644 124.511 83.546 124.1 83.546C123.689 83.546 123.307 83.644 122.952 83.84C122.607 84.036 122.331 84.33 122.126 84.722C121.921 85.1047 121.818 85.576 121.818 86.136C121.818 86.9667 122.028 87.6107 122.448 88.068C122.877 88.516 123.414 88.74 124.058 88.74ZM131.236 83.406C131.469 83.014 131.777 82.7107 132.16 82.496C132.552 82.272 133.014 82.16 133.546 82.16V83.812H133.14C132.515 83.812 132.039 83.9707 131.712 84.288C131.395 84.6053 131.236 85.156 131.236 85.94V90H129.64V82.286H131.236V83.406ZM144.351 82.16C144.958 82.16 145.499 82.286 145.975 82.538C146.46 82.79 146.838 83.1633 147.109 83.658C147.389 84.1527 147.529 84.75 147.529 85.45V90H145.947V85.688C145.947 84.9973 145.774 84.47 145.429 84.106C145.084 83.7327 144.612 83.546 144.015 83.546C143.418 83.546 142.942 83.7327 142.587 84.106C142.242 84.47 142.069 84.9973 142.069 85.688V90H140.487V85.688C140.487 84.9973 140.314 84.47 139.969 84.106C139.624 83.7327 139.152 83.546 138.555 83.546C137.958 83.546 137.482 83.7327 137.127 84.106C136.782 84.47 136.609 84.9973 136.609 85.688V90H135.013V82.286H136.609V83.168C136.87 82.8507 137.202 82.6033 137.603 82.426C138.004 82.2487 138.434 82.16 138.891 82.16C139.507 82.16 140.058 82.2907 140.543 82.552C141.028 82.8133 141.402 83.1913 141.663 83.686C141.896 83.2193 142.26 82.8507 142.755 82.58C143.25 82.3 143.782 82.16 144.351 82.16Z"
          fill="black"/>
    <defs>
        <radialGradient id="paint0_radial_45_28" cx="0" cy="0" r="1" gradientUnits="userSpaceOnUse"
                        gradientTransform="translate(93.7137 23.2831) rotate(135) scale(44.8437)">
            <stop stop-color="#37BCFD"/>
            <stop offset="0.58" stop-color="#7F52FF"/>
            <stop offset="1" stop-color="#C711E1"/>
        </radialGradient>
    </defs>
</svg>