<svg width="79" height="104" viewBox="0 0 79 104" fill="none" xmlns="http://www.w3.org/2000/svg">
    <rect x="10" y="8" width="59" height="59" rx="12" fill="#1C2024"/>
    <path d="M57 55H22V20H57L39.5 37.5L57 55Z" fill="url(#paint0_linear_44_9)"/>
    <path d="M25.912 90L22.146 85.646V90H20.55V80.27H22.146V84.708L25.926 80.27H27.928L23.7 85.142L27.998 90H25.912ZM32.7554 90.126C32.0274 90.126 31.3694 89.9627 30.7814 89.636C30.1934 89.3 29.7314 88.8333 29.3954 88.236C29.0594 87.6293 28.8914 86.9293 28.8914 86.136C28.8914 85.352 29.064 84.6567 29.4094 84.05C29.7547 83.4433 30.226 82.9767 30.8234 82.65C31.4207 82.3233 32.088 82.16 32.8254 82.16C33.5627 82.16 34.23 82.3233 34.8274 82.65C35.4247 82.9767 35.896 83.4433 36.2414 84.05C36.5867 84.6567 36.7594 85.352 36.7594 86.136C36.7594 86.92 36.582 87.6153 36.2274 88.222C35.8727 88.8287 35.3874 89.3 34.7714 89.636C34.1647 89.9627 33.4927 90.126 32.7554 90.126ZM32.7554 88.74C33.166 88.74 33.5487 88.642 33.9034 88.446C34.2674 88.25 34.5614 87.956 34.7854 87.564C35.0094 87.172 35.1214 86.696 35.1214 86.136C35.1214 85.576 35.014 85.1047 34.7994 84.722C34.5847 84.33 34.3 84.036 33.9454 83.84C33.5907 83.644 33.208 83.546 32.7974 83.546C32.3867 83.546 32.004 83.644 31.6494 83.84C31.304 84.036 31.0287 84.33 30.8234 84.722C30.618 85.1047 30.5154 85.576 30.5154 86.136C30.5154 86.9667 30.7254 87.6107 31.1454 88.068C31.5747 88.516 32.1114 88.74 32.7554 88.74ZM40.1991 83.588V87.858C40.1991 88.1473 40.2644 88.3573 40.3951 88.488C40.5351 88.6093 40.7684 88.67 41.0951 88.67H42.0751V90H40.8151C40.0964 90 39.5458 89.832 39.1631 89.496C38.7804 89.16 38.5891 88.614 38.5891 87.858V83.588H37.6791V82.286H38.5891V80.368H40.1991V82.286H42.0751V83.588H40.1991ZM45.1421 79.64V90H43.5461V79.64H45.1421ZM48.0495 81.264C47.7602 81.264 47.5175 81.166 47.3215 80.97C47.1255 80.774 47.0275 80.5313 47.0275 80.242C47.0275 79.9527 47.1255 79.71 47.3215 79.514C47.5175 79.318 47.7602 79.22 48.0495 79.22C48.3295 79.22 48.5675 79.318 48.7635 79.514C48.9595 79.71 49.0575 79.9527 49.0575 80.242C49.0575 80.5313 48.9595 80.774 48.7635 80.97C48.5675 81.166 48.3295 81.264 48.0495 81.264ZM48.8335 82.286V90H47.2375V82.286H48.8335ZM54.8209 82.16C55.4276 82.16 55.9689 82.286 56.4449 82.538C56.9302 82.79 57.3082 83.1633 57.5789 83.658C57.8496 84.1527 57.9849 84.75 57.9849 85.45V90H56.4029V85.688C56.4029 84.9973 56.2302 84.47 55.8849 84.106C55.5396 83.7327 55.0682 83.546 54.4709 83.546C53.8736 83.546 53.3976 83.7327 53.0429 84.106C52.6976 84.47 52.5249 84.9973 52.5249 85.688V90H50.9289V82.286H52.5249V83.168C52.7862 82.8507 53.1176 82.6033 53.5189 82.426C53.9296 82.2487 54.3636 82.16 54.8209 82.16Z"
          fill="white"/>
    <defs>
        <linearGradient id="paint0_linear_44_9" x1="57" y1="20" x2="22" y2="55" gradientUnits="userSpaceOnUse">
            <stop offset="0.00343514" stop-color="#E44857"/>
            <stop offset="0.4689" stop-color="#C711E1"/>
            <stop offset="1" stop-color="#7F52FF"/>
        </linearGradient>
    </defs>
</svg>