<svg width="800" height="800" viewBox="0 0 800 800" fill="none" xmlns="http://www.w3.org/2000/svg">
    <g clip-path="url(#clip0_77_18)">
        <rect width="800" height="800" rx="100" fill="white"/>
        <path d="M727.634 0H72.3665C32.4 0 0 32.4 0 72.3665V727.631C0 767.6 32.4 800 72.3665 800H727.631C767.6 800 800 767.6 800 727.631V72.3665C800 32.4 767.6 0 727.634 0ZM247.554 690.773C247.554 702.404 238.126 711.832 226.494 711.832H136.848C125.217 711.832 115.788 702.404 115.788 690.773V314.98C115.788 303.349 125.217 293.92 136.848 293.92H226.494C238.126 293.92 247.554 303.349 247.554 314.98V690.773ZM181.671 258.496C134.637 258.496 96.5068 220.366 96.5068 173.332C96.5068 126.297 134.637 88.1675 181.671 88.1675C228.706 88.1675 266.836 126.297 266.836 173.332C266.836 220.366 228.708 258.496 181.671 258.496ZM716.042 692.469C716.042 703.162 707.372 711.832 696.679 711.832H600.482C589.789 711.832 581.118 703.162 581.118 692.469V516.201C581.118 489.906 588.831 400.974 512.4 400.974C453.114 400.974 441.089 461.845 438.674 489.162V692.469C438.674 703.162 430.006 711.832 419.311 711.832H326.272C315.579 711.832 306.909 703.162 306.909 692.469V313.284C306.909 302.591 315.579 293.92 326.272 293.92H419.311C430.004 293.92 438.674 302.591 438.674 313.284V346.069C460.658 313.079 493.328 287.615 562.888 287.615C716.924 287.615 716.042 431.523 716.042 510.593V692.469Z"
              fill="#0077B7"/>
    </g>
    <defs>
        <clipPath id="clip0_77_18">
            <rect width="800" height="800" rx="100" fill="white"/>
        </clipPath>
    </defs>
</svg>