<svg width="7185" height="1740" viewBox="0 0 7185 1740" fill="none" xmlns="http://www.w3.org/2000/svg">
<rect y="400" width="2834.98" height="940" rx="80" fill="white"/>
<path d="M699.8 1125.95H200V626.35H699.8L449.9 876.05L699.8 1125.95Z" fill="url(#paint0_linear_3_28)"/>
<path d="M1304.6 624.75H1204.3L988.1 856.65V626.35H908.2V1125.95H988.1V884.65L1205.9 1125.95H1307.7L1077.4 867.55L1304.6 624.75Z" fill="black"/>
<path d="M1575.6 776.75C1547.4 761.05 1514.5 751.65 1480 751.65C1444 751.65 1411.1 759.45 1382.9 776.75C1354.7 794.05 1331.2 815.95 1315.5 844.15C1299.8 873.95 1292 906.85 1292 942.85C1292 978.85 1299.8 1013.35 1315.5 1041.55C1331.2 1069.75 1353.1 1093.25 1382.9 1108.95C1411.1 1124.65 1444 1134.05 1480 1134.05C1516 1134.05 1548.9 1126.25 1577.1 1108.95C1605.3 1093.25 1627.2 1069.75 1642.9 1041.55C1658.6 1011.75 1666.4 978.85 1666.4 942.85C1666.4 906.85 1657 873.95 1641.3 844.15C1625.8 815.85 1603.8 792.35 1575.6 776.75ZM1569.4 1006.85C1560 1025.65 1547.5 1039.75 1531.8 1049.15C1516.1 1060.15 1497.3 1064.85 1477 1064.85C1456.7 1064.85 1437.8 1060.15 1420.6 1049.15C1404.9 1038.15 1392.4 1024.05 1383 1006.85C1373.6 988.05 1370.5 967.65 1370.5 944.15C1370.5 920.65 1375.2 898.75 1384.6 881.45C1394 862.65 1406.5 848.55 1422.2 839.15C1437.9 828.15 1456.7 823.45 1478.6 823.45C1499 823.45 1517.8 828.15 1533.4 839.15C1549.1 850.15 1561.6 864.25 1571 881.45C1580.4 900.25 1583.5 920.65 1583.5 944.15C1583.5 967.65 1578.8 988.05 1569.4 1006.85Z" fill="black"/>
<path d="M1827.9 668.65H1751.1V731.35C1751.1 740.75 1749.5 748.55 1743.3 753.25C1738.6 757.95 1730.8 761.05 1721.4 761.05H1683.8V826.85H1749.6V1024.25C1749.6 1044.65 1754.3 1063.45 1762.1 1079.05C1769.9 1094.75 1782.5 1107.25 1798.1 1115.05C1813.8 1124.45 1831 1127.55 1852.9 1127.55H1912.4V1058.65H1868.5C1857.5 1058.65 1848.1 1055.55 1840.3 1046.15C1834 1038.35 1829.3 1027.35 1829.3 1014.85V826.85H1913.9V761.05H1829.3V668.65H1827.9Z" fill="black"/>
<path d="M2051.9 605.95H1973.6V1125.95H2051.9V605.95Z" fill="black"/>
<path d="M2221.1 607.55H2141.2V689.05H2221.1V607.55Z" fill="black"/>
<path d="M2219.5 761.05H2141.2V1127.45H2219.5V761.05Z" fill="black"/>
<path d="M2619.1 820.55C2608.1 798.65 2592.5 781.35 2572.1 770.45C2551.7 757.95 2528.2 751.65 2501.6 751.65C2473.4 751.65 2448.3 759.45 2426.4 772.05C2409.2 783.05 2395.1 798.65 2384.1 815.95V759.55H2308.9V1125.95H2387.2V920.65C2387.2 900.25 2390.3 883.05 2398.2 867.35C2406 851.65 2417 840.75 2429.5 831.35C2443.6 823.55 2459.3 818.85 2478.1 818.85C2495.3 818.85 2507.9 821.95 2520.4 829.85C2532.9 837.75 2540.8 847.05 2547 859.65C2553.3 872.15 2556.4 887.85 2556.4 905.05V1124.35H2634.7V895.65C2636.4 867.55 2630.2 842.55 2619.1 820.55Z" fill="black"/>
<rect x="3102.98" y="400" width="4081.18" height="940" rx="80" fill="white"/>
<path d="M3455.13 928.411C3454.11 926.647 3453.41 924.72 3453.05 922.717C3453.45 924.712 3454.16 926.632 3455.13 928.411ZM3457.68 931.558C3458.66 932.529 3459.76 933.372 3460.98 933.977C3459.76 933.353 3458.65 932.536 3457.69 931.558H3457.68Z" fill="#083042"/>
<path d="M3557.16 1039.6H3556.54C3550.35 1039.62 3544.26 1038.08 3538.83 1035.11L3414.43 965.591C3407.09 961.477 3402.57 953.849 3402.57 945.608V804.155C3402.57 798.095 3403.67 792.281 3406.24 787.196L3308.97 733.062C3304.94 741.537 3302.86 751.107 3302.98 761.162V994.785C3303.06 1001.54 3304.92 1008.16 3308.37 1013.97C3311.83 1019.77 3316.76 1024.56 3322.66 1027.85L3527.83 1142.67C3536.88 1147.75 3547.02 1150.17 3557.04 1150.17V1150.05C3557.28 1135.4 3557.16 1076.65 3557.16 1039.6Z" fill="#083042"/>
<path d="M3654.79 812.86L3654.06 811.774C3653.45 810.926 3652.84 810.198 3652.23 809.355C3652.84 810.079 3653.45 810.931 3654.06 811.774C3654.35 812.098 3654.6 812.461 3654.79 812.86ZM3552.4 756.183C3553.01 756.183 3553.5 756.064 3554.12 756.064C3553.5 756.183 3552.89 756.183 3552.4 756.183Z" fill="#3DDB85"/>
<path d="M3406.11 787.068C3408.84 781.416 3413.18 776.698 3418.58 773.508L3535.64 705.077C3541.01 701.928 3547.1 700.238 3553.32 700.174C3559.54 700.111 3565.66 701.676 3571.09 704.715L3689.38 770.966C3694.69 773.929 3699.24 778.071 3702.7 783.074L3798.38 726.521C3792.69 718.326 3785.21 711.534 3776.51 706.657L3581.1 597.295C3572.16 592.297 3562.06 589.724 3551.82 589.83C3541.57 589.936 3531.53 592.718 3522.69 597.899L3329.5 710.771C3320.58 715.98 3313.43 723.743 3308.97 733.058L3406.11 787.068Z" fill="#3DDC84"/>
<path d="M3455.35 814.325C3455.6 813.84 3455.84 813.354 3456.09 813.001C3455.84 813.482 3455.6 813.84 3455.35 814.325Z" fill="#3DDB85"/>
<path d="M3798.26 726.521L3702.57 783.074C3706.24 788.401 3708.44 794.696 3708.56 801.123V935.796C3708.63 941.964 3707.06 948.041 3704.01 953.404C3700.97 958.767 3696.55 963.223 3691.21 966.315L3574.14 1034.75C3568.97 1037.76 3563.13 1039.43 3557.15 1039.6C3557.28 1076.54 3557.28 1135.28 3557.03 1149.94V1150.05C3567.29 1149.94 3577.35 1147.19 3586.24 1142.06L3779.44 1029.06C3797.4 1018.52 3808.4 999.385 3808.15 978.674V756.435C3808.03 745.656 3804.37 735.362 3798.26 726.521Z" fill="#4285F4"/>
<path d="M3657.01 921.388C3656.89 921.635 3656.89 921.878 3656.77 922.13C3656.9 921.904 3656.99 921.651 3657.01 921.388ZM3655.79 814.449C3655.53 813.84 3655.17 813.354 3654.8 812.749C3655.17 813.354 3655.54 813.963 3655.79 814.449ZM3568.04 980.488L3646.49 934.591L3568.04 980.497V980.488ZM3656.03 924.174C3655.78 924.783 3655.42 925.387 3655.16 925.997C3655.42 925.268 3655.66 924.659 3656.03 924.174Z" fill="#4285F4"/>
<path d="M3455 815.411C3454.01 817.764 3453.39 820.259 3453.17 822.805C3453.05 823.767 3453.05 824.738 3453.05 825.833V920.66C3453.05 921.384 3453.05 921.993 3453.17 922.721C3453.42 924.774 3454.15 926.716 3455.25 928.415C3455.98 929.625 3456.84 930.587 3457.7 931.558C3458.68 932.529 3459.77 933.372 3460.99 933.986L3544.34 980.612C3547.96 982.614 3552.04 983.655 3556.18 983.635H3557.04C3560.93 983.503 3564.72 982.379 3568.04 980.369L3646.49 934.467C3646.98 934.224 3647.35 933.858 3647.84 933.62C3648.7 933.015 3649.55 932.406 3650.29 931.677C3651.44 930.636 3652.49 929.506 3653.46 928.287C3654.07 927.44 3654.68 926.597 3655.17 925.745C3655.53 925.145 3655.79 924.535 3656.02 923.926C3656.27 923.33 3656.64 922.598 3656.89 921.874C3657 921.627 3657 921.384 3657.13 921.146C3657.87 918.794 3658.24 916.341 3658.23 913.876V823.648C3658.23 821.957 3657.98 820.381 3657.62 818.81C3657.38 817.715 3657 816.744 3656.64 815.773L3655.91 814.325C3655.66 813.716 3655.29 813.235 3654.93 812.626L3654.19 811.54C3653.58 810.688 3652.97 809.964 3652.36 809.117C3650.37 806.797 3647.97 804.866 3645.27 803.422L3565.97 758.982C3564.6 758.209 3563.17 757.559 3561.69 757.039C3559.7 756.439 3557.65 756.075 3555.57 755.954H3553.98C3553.38 755.954 3552.89 755.954 3552.28 756.068C3550.88 756.194 3549.49 756.438 3548.12 756.797C3547.88 756.916 3547.64 756.916 3547.39 757.044C3545.56 757.529 3543.85 758.373 3542.13 759.339L3463.68 805.245C3461.4 806.583 3459.41 808.353 3457.81 810.454C3457.21 811.302 3456.59 812.149 3456.1 812.997C3455.86 813.482 3455.62 813.844 3455.37 814.33L3455 815.411Z" fill="#D6F0FF"/>
<path d="M3557.03 983.631H3556.17C3552.03 983.653 3547.95 982.614 3544.32 980.612L3460.98 933.982C3459.78 933.316 3458.67 932.501 3457.68 931.558C3456.72 930.625 3455.9 929.564 3455.23 928.407C3454.22 926.642 3453.52 924.716 3453.16 922.712C3453.03 921.993 3453.03 921.384 3453.03 920.66V825.824C3453.03 824.857 3453.03 823.771 3453.16 822.796C3453.39 820.258 3454.01 817.764 3454.99 815.407L3432.5 801.727L3406.1 787.073C3403.66 792.158 3402.44 797.967 3402.44 804.027V945.485C3402.51 949.558 3403.64 953.543 3405.72 957.047C3407.8 960.551 3410.75 963.454 3414.29 965.472L3538.58 1035.11C3543.99 1038.13 3550.1 1039.68 3556.3 1039.59H3556.92C3556.92 1021.54 3556.79 1008.71 3556.79 1008.71L3557.03 983.631Z" fill="#083042"/>
<path d="M3557.03 983.631H3556.17C3552.03 983.653 3547.95 982.614 3544.32 980.612L3460.98 933.982C3459.78 933.316 3458.67 932.501 3457.68 931.558C3456.72 930.625 3455.9 929.564 3455.23 928.407C3454.22 926.642 3453.52 924.716 3453.16 922.712C3453.03 921.993 3453.03 921.384 3453.03 920.66V825.824C3453.03 824.857 3453.03 823.771 3453.16 822.796C3453.39 820.258 3454.01 817.764 3454.99 815.407L3432.5 801.727L3406.1 787.073C3403.66 792.158 3402.44 797.967 3402.44 804.027V945.485C3402.51 949.558 3403.64 953.543 3405.72 957.047C3407.8 960.551 3410.75 963.454 3414.29 965.472L3538.58 1035.11C3543.99 1038.13 3550.1 1039.68 3556.3 1039.59H3556.92C3556.92 1021.54 3556.79 1008.71 3556.79 1008.71L3557.03 983.631Z" fill="#041619"/>
<path d="M3689.25 770.966L3570.96 704.711C3565.53 701.673 3559.41 700.109 3553.19 700.173C3546.97 700.238 3540.88 701.928 3535.52 705.077L3418.46 773.513C3413.02 776.671 3408.67 781.4 3405.98 787.077L3432.51 801.732L3454.99 815.411L3455.35 814.325C3455.6 813.835 3455.84 813.354 3456.08 812.992C3456.57 812.145 3457.19 811.297 3457.8 810.45C3459.39 808.388 3461.34 806.698 3463.67 805.241L3542.12 759.335C3543.79 758.393 3545.54 757.628 3547.37 757.039C3547.62 756.92 3547.86 756.92 3548.1 756.792C3549.47 756.421 3550.85 756.18 3552.26 756.068C3552.87 756.068 3553.36 755.945 3553.97 755.945H3555.56C3557.63 756.077 3559.68 756.435 3561.67 757.031C3563.18 757.507 3564.6 758.156 3565.95 758.977L3645.25 803.427C3647.93 804.9 3650.33 806.825 3652.35 809.117C3652.95 809.84 3653.57 810.692 3654.17 811.535L3654.91 812.621L3675.19 799.185L3702.69 782.835C3699.15 778.108 3694.63 773.87 3689.25 770.966Z" fill="#3DDB85"/>
<path d="M3689.25 770.966L3570.96 704.711C3565.53 701.673 3559.41 700.109 3553.19 700.173C3546.97 700.238 3540.88 701.928 3535.52 705.077L3418.46 773.513C3413.02 776.671 3408.67 781.4 3405.98 787.077L3432.51 801.732L3454.99 815.411L3455.35 814.325C3455.6 813.835 3455.84 813.354 3456.08 812.992C3456.57 812.145 3457.19 811.297 3457.8 810.45C3459.39 808.388 3461.34 806.698 3463.67 805.241L3542.12 759.335C3543.79 758.393 3545.54 757.628 3547.37 757.039C3547.62 756.92 3547.86 756.92 3548.1 756.792C3549.47 756.421 3550.85 756.18 3552.26 756.068C3552.87 756.068 3553.36 755.945 3553.97 755.945H3555.56C3557.63 756.077 3559.68 756.435 3561.67 757.031C3563.18 757.507 3564.6 758.156 3565.95 758.977L3645.25 803.427C3647.93 804.9 3650.33 806.825 3652.35 809.117C3652.95 809.84 3653.57 810.692 3654.17 811.535L3654.91 812.621L3675.19 799.185L3702.69 782.835C3699.15 778.108 3694.63 773.87 3689.25 770.966Z" fill="#37BF6E"/>
<path d="M3654.79 812.869C3655.16 813.469 3655.41 813.954 3655.77 814.564L3656.51 816.016C3657.53 818.514 3658.07 821.185 3658.09 823.886V914.118C3658.1 916.583 3657.73 919.034 3656.99 921.384C3656.87 921.622 3656.87 921.869 3656.75 922.108C3656.52 922.817 3656.23 923.507 3655.9 924.174C3655.64 924.769 3655.28 925.379 3655.04 925.983C3654.55 926.835 3653.94 927.678 3653.32 928.53C3652.37 929.749 3651.3 930.882 3650.15 931.916C3649.42 932.644 3648.56 933.249 3647.7 933.858C3647.21 934.096 3646.85 934.463 3646.36 934.705L3567.91 980.603C3564.53 982.507 3560.77 983.627 3556.91 983.878V1008.95C3556.91 1008.95 3556.91 1021.79 3557.03 1039.83C3563.02 1039.72 3568.87 1038.05 3574.02 1034.99L3691.08 966.553C3701.96 960.139 3708.56 948.508 3708.44 936.039V801.361C3708.32 794.819 3706.12 788.64 3702.46 783.312L3674.95 799.666L3654.79 812.869Z" fill="#4285F4"/>
<path d="M3654.79 812.869C3655.16 813.469 3655.41 813.954 3655.77 814.564L3656.51 816.016C3657.53 818.514 3658.07 821.185 3658.09 823.886V914.118C3658.1 916.583 3657.73 919.034 3656.99 921.384C3656.87 921.622 3656.87 921.869 3656.75 922.108C3656.52 922.817 3656.23 923.507 3655.9 924.174C3655.64 924.769 3655.28 925.379 3655.04 925.983C3654.55 926.835 3653.94 927.678 3653.32 928.53C3652.37 929.749 3651.3 930.882 3650.15 931.916C3649.42 932.644 3648.56 933.249 3647.7 933.858C3647.21 934.096 3646.85 934.463 3646.36 934.705L3567.91 980.603C3564.53 982.507 3560.77 983.627 3556.91 983.878V1008.95C3556.91 1008.95 3556.91 1021.79 3557.03 1039.83C3563.02 1039.72 3568.87 1038.05 3574.02 1034.99L3691.08 966.553C3701.96 960.139 3708.56 948.508 3708.44 936.039V801.361C3708.32 794.819 3706.12 788.64 3702.46 783.312L3674.95 799.666L3654.79 812.869Z" fill="#3870B2"/>
<path d="M3547.51 757.163C3545.67 757.649 3543.96 758.496 3542.26 759.458L3463.8 805.365L3542.25 759.467C3543.88 758.452 3545.65 757.679 3547.5 757.172L3547.51 757.163Z" fill="#D6F0FF"/>
<path opacity="0.1" d="M3547.51 757.163C3545.67 757.649 3543.96 758.496 3542.26 759.458L3463.8 805.365L3542.25 759.467C3543.88 758.452 3545.65 757.679 3547.5 757.172L3547.51 757.163Z" fill="black"/>
<path d="M3656.51 815.901C3656.88 816.89 3657.2 817.898 3657.48 818.92C3657.23 817.954 3656.86 816.987 3656.5 815.901H3656.51Z" fill="#D6F0FF"/>
<path opacity="0.1" d="M3656.51 815.901C3656.88 816.89 3657.2 817.898 3657.48 818.92C3657.23 817.954 3656.86 816.987 3656.5 815.901H3656.51Z" fill="black"/>
<path d="M4130.11 746.227H4174.54V920.091C4174.46 936.028 4171.08 949.752 4164.39 961.263C4157.71 972.693 4148.38 981.507 4136.38 987.705C4124.47 993.822 4110.59 996.881 4094.73 996.881C4080.24 996.881 4067.2 994.305 4055.61 989.153C4044.1 983.921 4034.96 976.194 4028.2 965.972C4021.44 955.749 4018.06 943.031 4018.06 927.818H4062.61C4062.69 934.499 4064.14 940.254 4066.96 945.084C4069.86 949.913 4073.84 953.616 4078.91 956.192C4083.98 958.768 4089.82 960.055 4096.42 960.055C4103.58 960.055 4109.66 958.566 4114.65 955.588C4119.64 952.529 4123.42 948.022 4126 942.065C4128.66 936.109 4130.02 928.784 4130.11 920.091V746.227ZM4303.3 997.122C4284.71 997.122 4268.65 993.259 4255.13 985.531C4241.69 977.723 4231.34 966.696 4224.1 952.449C4216.86 938.121 4213.23 921.258 4213.23 901.859C4213.23 882.783 4216.86 866.04 4224.1 851.632C4231.43 837.143 4241.65 825.875 4254.77 817.825C4267.89 809.696 4283.3 805.631 4301.01 805.631C4312.44 805.631 4323.23 807.482 4333.37 811.185C4343.59 814.807 4352.61 820.441 4360.41 828.088C4368.3 835.735 4374.5 845.474 4379.01 857.307C4383.52 869.059 4385.77 883.064 4385.77 899.324V912.726H4233.76V883.266H4343.87C4343.79 874.894 4341.98 867.449 4338.44 860.929C4334.9 854.329 4329.95 849.137 4323.59 845.354C4317.31 841.571 4309.99 839.679 4301.61 839.679C4292.68 839.679 4284.83 841.852 4278.07 846.199C4271.31 850.465 4266.04 856.099 4262.25 863.102C4258.55 870.025 4256.66 877.631 4256.58 885.922V911.639C4256.58 922.425 4258.55 931.682 4262.5 939.409C4266.44 947.056 4271.95 952.932 4279.04 957.037C4286.12 961.062 4294.41 963.074 4303.91 963.074C4310.27 963.074 4316.02 962.188 4321.17 960.418C4326.33 958.566 4330.79 955.87 4334.58 952.328C4338.36 948.786 4341.22 944.4 4343.15 939.168L4383.96 943.756C4381.38 954.542 4376.47 963.959 4369.23 972.009C4362.06 979.977 4352.89 986.175 4341.7 990.602C4330.51 994.949 4317.71 997.122 4303.3 997.122ZM4515.35 808.045V841.852H4408.74V808.045H4515.35ZM4435.06 763.614H4478.77V937.719C4478.77 943.595 4479.65 948.102 4481.42 951.241C4483.28 954.3 4485.69 956.393 4488.67 957.52C4491.65 958.647 4494.95 959.21 4498.57 959.21C4501.31 959.21 4503.8 959.009 4506.06 958.607C4508.39 958.204 4510.16 957.842 4511.37 957.52L4518.73 991.689C4516.4 992.494 4513.06 993.379 4508.71 994.345C4504.45 995.311 4499.21 995.875 4493.02 996.036C4482.07 996.357 4472.21 994.707 4463.43 991.085C4454.66 987.383 4447.7 981.668 4442.55 973.94C4437.48 966.213 4434.98 956.554 4435.06 944.963V763.614ZM4551.91 1063.05V808.045H4594.89V838.713H4597.42C4599.68 834.205 4602.86 829.416 4606.96 824.345C4611.07 819.194 4616.62 814.807 4623.62 811.185C4630.63 807.482 4639.56 805.631 4650.43 805.631C4664.76 805.631 4677.68 809.293 4689.19 816.618C4700.78 823.862 4709.95 834.608 4716.71 848.855C4723.56 863.022 4726.98 880.408 4726.98 901.014C4726.98 921.379 4723.64 938.685 4716.96 952.932C4710.27 967.179 4701.18 978.045 4689.67 985.531C4678.16 993.017 4665.12 996.76 4650.55 996.76C4639.92 996.76 4631.11 994.989 4624.11 991.447C4617.1 987.906 4611.47 983.64 4607.2 978.649C4603.02 973.578 4599.76 968.789 4597.42 964.281H4595.61V1063.05H4551.91ZM4594.77 900.773C4594.77 912.766 4596.46 923.27 4599.84 932.286C4603.3 941.301 4608.25 948.344 4614.69 953.415C4621.21 958.405 4629.1 960.901 4638.35 960.901C4648.01 960.901 4656.1 958.325 4662.62 953.173C4669.14 947.941 4674.05 940.818 4677.35 931.803C4680.73 922.707 4682.42 912.364 4682.42 900.773C4682.42 889.262 4680.77 879.04 4677.47 870.105C4674.17 861.17 4669.26 854.168 4662.74 849.097C4656.22 844.026 4648.09 841.49 4638.35 841.49C4629.02 841.49 4621.09 843.945 4614.57 848.855C4608.05 853.765 4603.1 860.647 4599.72 869.501C4596.42 878.356 4594.77 888.779 4594.77 900.773ZM4817.77 997.243C4806.02 997.243 4795.44 995.15 4786.02 990.964C4776.68 986.698 4769.28 980.42 4763.8 972.129C4758.41 963.839 4755.71 953.616 4755.71 941.462C4755.71 930.998 4757.64 922.345 4761.51 915.503C4765.37 908.661 4770.64 903.188 4777.32 899.082C4784.01 894.977 4791.53 891.878 4799.9 889.786C4808.35 887.612 4817.09 886.043 4826.1 885.077C4836.97 883.95 4845.78 882.944 4852.54 882.058C4859.31 881.092 4864.22 879.643 4867.27 877.712C4870.41 875.699 4871.98 872.6 4871.98 868.415V867.69C4871.98 858.595 4869.29 851.552 4863.89 846.561C4858.5 841.571 4850.73 839.075 4840.59 839.075C4829.89 839.075 4821.39 841.41 4815.12 846.078C4808.92 850.747 4804.73 856.26 4802.56 862.619L4761.75 856.824C4764.97 845.555 4770.28 836.137 4777.69 828.571C4785.09 820.924 4794.15 815.209 4804.85 811.426C4815.56 807.562 4827.39 805.631 4840.35 805.631C4849.28 805.631 4858.18 806.677 4867.03 808.77C4875.89 810.863 4883.98 814.324 4891.3 819.153C4898.63 823.902 4904.5 830.382 4908.93 838.592C4913.44 846.803 4915.69 857.065 4915.69 869.381V993.5H4873.67V968.024H4872.23C4869.57 973.176 4865.83 978.005 4861 982.513C4856.25 986.94 4850.25 990.522 4843.01 993.259C4835.84 995.915 4827.43 997.243 4817.77 997.243ZM4829.12 965.126C4837.9 965.126 4845.5 963.396 4851.94 959.935C4858.38 956.393 4863.33 951.724 4866.79 945.929C4870.33 940.134 4872.1 933.815 4872.1 926.973V905.119C4870.74 906.246 4868.4 907.293 4865.1 908.259C4861.88 909.224 4858.26 910.07 4854.24 910.794C4850.21 911.518 4846.23 912.162 4842.28 912.726C4838.34 913.289 4834.92 913.772 4832.02 914.175C4825.5 915.06 4819.66 916.509 4814.51 918.521C4809.36 920.534 4805.3 923.351 4802.32 926.973C4799.34 930.515 4797.85 935.103 4797.85 940.737C4797.85 948.786 4800.79 954.864 4806.66 958.969C4812.54 963.074 4820.03 965.126 4829.12 965.126ZM5040.53 997.122C5022.02 997.122 5006.12 993.057 4992.84 984.928C4979.64 976.798 4969.46 965.569 4962.3 951.241C4955.21 936.833 4951.67 920.252 4951.67 901.497C4951.67 882.662 4955.29 866.04 4962.54 851.632C4969.78 837.143 4980 825.875 4993.21 817.825C5006.49 809.696 5022.18 805.631 5040.29 805.631C5055.35 805.631 5068.67 808.408 5080.26 813.962C5091.93 819.435 5101.23 827.203 5108.15 837.264C5115.07 847.245 5119.02 858.917 5119.98 872.278H5078.21C5076.52 863.344 5072.49 855.898 5066.13 849.942C5059.85 843.905 5051.44 840.886 5040.9 840.886C5031.96 840.886 5024.11 843.301 5017.35 848.131C5010.59 852.88 5005.32 859.722 5001.54 868.656C4997.83 877.591 4995.98 888.296 4995.98 900.773C4995.98 913.41 4997.83 924.277 5001.54 933.372C5005.24 942.387 5010.43 949.35 5017.11 954.26C5023.87 959.089 5031.8 961.504 5040.9 961.504C5047.34 961.504 5053.09 960.297 5058.16 957.882C5063.31 955.387 5067.62 951.805 5071.08 947.136C5074.54 942.468 5076.92 936.793 5078.21 930.112H5119.98C5118.93 943.232 5115.07 954.864 5108.39 965.006C5101.71 975.067 5092.61 982.955 5081.1 988.67C5069.59 994.305 5056.07 997.122 5040.53 997.122ZM5195.71 935.304L5195.59 882.541H5202.6L5269.24 808.045H5320.32L5238.33 899.324H5229.28L5195.71 935.304ZM5155.87 993.5V746.227H5199.58V993.5H5155.87ZM5272.26 993.5L5211.89 909.104L5241.35 878.315L5324.54 993.5H5272.26ZM5647.37 829.658H5602.21C5600.92 822.252 5598.55 815.692 5595.09 809.977C5591.63 804.182 5587.32 799.272 5582.17 795.247C5577.02 791.223 5571.14 788.204 5564.54 786.192C5558.02 784.099 5550.98 783.053 5543.41 783.053C5529.97 783.053 5518.06 786.433 5507.67 793.195C5497.29 799.875 5489.16 809.696 5483.28 822.655C5477.41 835.534 5474.47 851.27 5474.47 869.864C5474.47 888.779 5477.41 904.717 5483.28 917.676C5489.24 930.555 5497.37 940.295 5507.67 946.895C5518.06 953.415 5529.93 956.675 5543.29 956.675C5550.7 956.675 5557.62 955.709 5564.06 953.777C5570.58 951.765 5576.41 948.827 5581.56 944.963C5586.8 941.099 5591.18 936.35 5594.73 930.716C5598.35 925.081 5600.84 918.642 5602.21 911.398L5647.37 911.639C5645.68 923.391 5642.01 934.419 5636.38 944.722C5630.83 955.025 5623.54 964.12 5614.53 972.009C5605.51 979.816 5594.97 985.934 5582.89 990.361C5570.82 994.707 5557.42 996.881 5542.69 996.881C5520.95 996.881 5501.56 991.85 5484.49 981.788C5467.43 971.727 5453.98 957.198 5444.16 938.202C5434.34 919.205 5429.43 896.426 5429.43 869.864C5429.43 843.221 5434.38 820.441 5444.28 801.526C5454.19 782.529 5467.67 768 5484.73 757.939C5501.8 747.877 5521.11 742.847 5542.69 742.847C5556.45 742.847 5569.25 744.778 5581.08 748.642C5592.91 752.506 5603.46 758.18 5612.72 765.666C5621.97 773.071 5629.58 782.167 5635.53 792.953C5641.57 803.659 5645.52 815.893 5647.37 829.658ZM5767.35 997.122C5749.24 997.122 5733.54 993.138 5720.26 985.169C5706.98 977.2 5696.68 966.052 5689.35 951.724C5682.11 937.397 5678.49 920.654 5678.49 901.497C5678.49 882.34 5682.11 865.557 5689.35 851.149C5696.68 836.741 5706.98 825.553 5720.26 817.584C5733.54 809.615 5749.24 805.631 5767.35 805.631C5785.46 805.631 5801.16 809.615 5814.44 817.584C5827.72 825.553 5837.98 836.741 5845.23 851.149C5852.55 865.557 5856.21 882.34 5856.21 901.497C5856.21 920.654 5852.55 937.397 5845.23 951.724C5837.98 966.052 5827.72 977.2 5814.44 985.169C5801.16 993.138 5785.46 997.122 5767.35 997.122ZM5767.59 962.108C5777.41 962.108 5785.62 959.411 5792.22 954.018C5798.82 948.545 5803.73 941.22 5806.95 932.044C5810.25 922.868 5811.9 912.645 5811.9 901.376C5811.9 890.027 5810.25 879.764 5806.95 870.588C5803.73 861.331 5798.82 853.966 5792.22 848.493C5785.62 843.019 5777.41 840.283 5767.59 840.283C5757.53 840.283 5749.16 843.019 5742.48 848.493C5735.88 853.966 5730.93 861.331 5727.63 870.588C5724.41 879.764 5722.8 890.027 5722.8 901.376C5722.8 912.645 5724.41 922.868 5727.63 932.044C5730.93 941.22 5735.88 948.545 5742.48 954.018C5749.16 959.411 5757.53 962.108 5767.59 962.108ZM5893.31 993.5V808.045H5935.09V839.558H5937.26C5941.12 828.933 5947.52 820.643 5956.46 814.686C5965.39 808.649 5976.06 805.631 5988.45 805.631C6001.01 805.631 6011.6 808.689 6020.21 814.807C6028.9 820.844 6035.02 829.094 6038.56 839.558H6040.49C6044.6 829.255 6051.52 821.045 6061.26 814.928C6071.08 808.73 6082.71 805.631 6096.15 805.631C6113.22 805.631 6127.14 811.024 6137.93 821.81C6148.71 832.596 6154.11 848.332 6154.11 869.018V993.5H6110.28V875.78C6110.28 864.269 6107.22 855.858 6101.1 850.545C6094.99 845.152 6087.5 842.456 6078.65 842.456C6068.1 842.456 6059.85 845.756 6053.89 852.357C6048.02 858.876 6045.08 867.368 6045.08 877.832V993.5H6002.22V873.969C6002.22 864.39 5999.32 856.743 5993.52 851.028C5987.81 845.313 5980.32 842.456 5971.07 842.456C5964.79 842.456 5959.07 844.066 5953.92 847.286C5948.77 850.425 5944.67 854.892 5941.61 860.688C5938.55 866.402 5937.02 873.083 5937.02 880.73V993.5H5893.31ZM6198.45 1063.05V808.045H6241.43V838.713H6243.97C6246.22 834.205 6249.4 829.416 6253.51 824.345C6257.61 819.194 6263.16 814.807 6270.17 811.185C6277.17 807.482 6286.1 805.631 6296.97 805.631C6311.3 805.631 6324.22 809.293 6335.73 816.618C6347.32 823.862 6356.5 834.608 6363.26 848.855C6370.1 863.022 6373.52 880.408 6373.52 901.014C6373.52 921.379 6370.18 938.685 6363.5 952.932C6356.82 967.179 6347.72 978.045 6336.21 985.531C6324.7 993.017 6311.66 996.76 6297.09 996.76C6286.47 996.76 6277.65 994.989 6270.65 991.447C6263.65 987.906 6258.01 983.64 6253.75 978.649C6249.56 973.578 6246.3 968.789 6243.97 964.281H6242.16V1063.05H6198.45ZM6241.31 900.773C6241.31 912.766 6243 923.27 6246.38 932.286C6249.84 941.301 6254.79 948.344 6261.23 953.415C6267.75 958.405 6275.64 960.901 6284.9 960.901C6294.56 960.901 6302.65 958.325 6309.17 953.173C6315.69 947.941 6320.6 940.818 6323.9 931.803C6327.28 922.707 6328.97 912.364 6328.97 900.773C6328.97 889.262 6327.32 879.04 6324.02 870.105C6320.72 861.17 6315.81 854.168 6309.29 849.097C6302.77 844.026 6294.64 841.49 6284.9 841.49C6275.56 841.49 6267.63 843.945 6261.11 848.855C6254.59 853.765 6249.64 860.647 6246.26 869.501C6242.96 878.356 6241.31 888.779 6241.31 900.773ZM6491.84 997.122C6473.73 997.122 6458.04 993.138 6444.76 985.169C6431.47 977.2 6421.17 966.052 6413.85 951.724C6406.6 937.397 6402.98 920.654 6402.98 901.497C6402.98 882.34 6406.6 865.557 6413.85 851.149C6421.17 836.741 6431.47 825.553 6444.76 817.584C6458.04 809.615 6473.73 805.631 6491.84 805.631C6509.95 805.631 6525.65 809.615 6538.93 817.584C6552.21 825.553 6562.48 836.741 6569.72 851.149C6577.04 865.557 6580.71 882.34 6580.71 901.497C6580.71 920.654 6577.04 937.397 6569.72 951.724C6562.48 966.052 6552.21 977.2 6538.93 985.169C6525.65 993.138 6509.95 997.122 6491.84 997.122ZM6492.08 962.108C6501.91 962.108 6510.12 959.411 6516.72 954.018C6523.32 948.545 6528.23 941.22 6531.45 932.044C6534.75 922.868 6536.4 912.645 6536.4 901.376C6536.4 890.027 6534.75 879.764 6531.45 870.588C6528.23 861.331 6523.32 853.966 6516.72 848.493C6510.12 843.019 6501.91 840.283 6492.08 840.283C6482.02 840.283 6473.65 843.019 6466.97 848.493C6460.37 853.966 6455.42 861.331 6452.12 870.588C6448.9 879.764 6447.29 890.027 6447.29 901.376C6447.29 912.645 6448.9 922.868 6452.12 932.044C6455.42 941.22 6460.37 948.545 6466.97 954.018C6473.65 959.411 6482.02 962.108 6492.08 962.108ZM6764.38 857.065L6724.54 861.412C6723.41 857.387 6721.44 853.604 6718.62 850.062C6715.88 846.521 6712.18 843.663 6707.51 841.49C6702.84 839.317 6697.13 838.23 6690.37 838.23C6681.27 838.23 6673.63 840.202 6667.43 844.146C6661.31 848.09 6658.29 853.202 6658.37 859.48C6658.29 864.873 6660.26 869.26 6664.29 872.641C6668.39 876.021 6675.15 878.798 6684.57 880.972L6716.21 887.733C6733.75 891.516 6746.79 897.513 6755.33 905.723C6763.94 913.933 6768.28 924.679 6768.37 937.96C6768.28 949.632 6764.86 959.935 6758.1 968.869C6751.42 977.723 6742.12 984.646 6730.21 989.636C6718.3 994.627 6704.62 997.122 6689.16 997.122C6666.46 997.122 6648.19 992.373 6634.35 982.875C6620.5 973.296 6612.25 959.975 6609.59 942.911L6652.21 938.805C6654.15 947.177 6658.25 953.495 6664.53 957.761C6670.81 962.027 6678.98 964.161 6689.04 964.161C6699.42 964.161 6707.75 962.027 6714.03 957.761C6720.39 953.495 6723.57 948.223 6723.57 941.945C6723.57 936.632 6721.52 932.245 6717.41 928.784C6713.39 925.323 6707.11 922.667 6698.58 920.815L6666.94 914.175C6649.16 910.472 6636 904.234 6627.46 895.46C6618.93 886.606 6614.71 875.418 6614.79 861.895C6614.71 850.465 6617.8 840.564 6624.08 832.193C6630.44 823.741 6639.26 817.222 6650.52 812.634C6661.87 807.965 6674.95 805.631 6689.76 805.631C6711.5 805.631 6728.6 810.259 6741.08 819.516C6753.64 828.772 6761.4 841.289 6764.38 857.065ZM6886.51 997.122C6867.91 997.122 6851.86 993.259 6838.33 985.531C6824.89 977.723 6814.55 966.696 6807.3 952.449C6800.06 938.121 6796.44 921.258 6796.44 901.859C6796.44 882.783 6800.06 866.04 6807.3 851.632C6814.63 837.143 6824.85 825.875 6837.97 817.825C6851.09 809.696 6866.51 805.631 6884.21 805.631C6895.64 805.631 6906.43 807.482 6916.57 811.185C6926.79 814.807 6935.81 820.441 6943.62 828.088C6951.51 835.735 6957.7 845.474 6962.21 857.307C6966.72 869.059 6968.97 883.064 6968.97 899.324V912.726H6816.96V883.266H6927.08C6927 874.894 6925.18 867.449 6921.64 860.929C6918.1 854.329 6913.15 849.137 6906.79 845.354C6900.51 841.571 6893.19 839.679 6884.82 839.679C6875.88 839.679 6868.03 841.852 6861.27 846.199C6854.51 850.465 6849.24 856.099 6845.46 863.102C6841.75 870.025 6839.86 877.631 6839.78 885.922V911.639C6839.78 922.425 6841.75 931.682 6845.7 939.409C6849.64 947.056 6855.16 952.932 6862.24 957.037C6869.32 961.062 6877.61 963.074 6887.11 963.074C6893.47 963.074 6899.23 962.188 6904.38 960.418C6909.53 958.566 6914 955.87 6917.78 952.328C6921.56 948.786 6924.42 944.4 6926.35 939.168L6967.16 943.756C6964.59 954.542 6959.68 963.959 6952.43 972.009C6945.27 979.977 6936.09 986.175 6924.9 990.602C6913.71 994.949 6900.92 997.122 6886.51 997.122Z" fill="black"/>
<defs>
<linearGradient id="paint0_linear_3_28" x1="699.755" y1="626.296" x2="200.05" y2="1126" gradientUnits="userSpaceOnUse">
<stop offset="0.00343514" stop-color="#E44857"/>
<stop offset="0.4689" stop-color="#C711E1"/>
<stop offset="1" stop-color="#7F52FF"/>
</linearGradient>
</defs>
</svg>
