<svg width="800" height="800" viewBox="0 0 800 800" fill="none" xmlns="http://www.w3.org/2000/svg">
    <g clip-path="url(#clip0_80_33)">
        <path fill-rule="evenodd" clip-rule="evenodd"
              d="M164.062 -3.05176e-05H635.938C726.172 -3.05176e-05 850 -256.234 850 -166L961.5 800C961.5 890.234 726.172 800 635.938 800H164.062C73.8281 800 -53 944.234 -53 854L-90 -143C-90 -233.234 73.8281 -3.05176e-05 164.062 -3.05176e-05Z"
              fill="black"/>
        <path d="M527.125 380.594C524.844 379.5 522.516 378.437 520.156 377.437C516.063 301.875 474.781 258.609 405.453 258.172C365.453 257.906 329.641 274.219 307.328 308.078L345.453 334.234C361.312 310.172 386.203 305.047 404.531 305.047H405.156C427.984 305.187 445.219 311.828 456.359 324.766C464.469 334.203 469.906 347.219 472.594 363.656C452.344 360.219 430.469 359.156 407.062 360.5C341.156 364.297 298.781 402.734 301.625 456.141C303.062 483.25 316.563 506.547 339.625 521.781C359.125 534.656 384.25 540.953 410.344 539.516C444.828 537.641 471.859 524.484 490.734 500.437C505.063 482.172 514.125 458.5 518.125 428.687C534.547 438.594 546.719 451.641 553.453 467.328C564.875 493.984 565.547 537.797 529.797 573.516C498.484 604.812 460.828 618.344 403.937 618.766C340.812 618.297 293.078 598.047 262.047 558.594C232.984 521.656 217.969 468.297 217.406 400C217.969 331.703 232.984 278.344 262.047 241.406C293.078 201.953 340.812 181.703 403.937 181.234C467.5 181.703 516.063 202.047 548.297 241.687C564.094 261.125 576 285.578 583.859 314.078L628.531 302.156C619.016 267.078 604.047 236.844 583.656 211.766C542.344 160.938 481.938 134.906 404.094 134.359H403.781C326.094 134.906 266.344 161.047 226.219 212.062C190.5 257.453 172.078 320.625 171.469 399.813V400.187C172.078 479.375 190.5 542.547 226.219 587.937C266.344 638.953 326.094 665.109 403.781 665.641H404.094C473.156 665.156 521.844 647.078 561.953 607C614.422 554.578 612.844 488.875 595.547 448.531C583.141 419.609 559.484 396.109 527.125 380.594ZM407.875 492.719C379 494.344 348.984 481.375 347.5 453.609C346.406 433.016 362.156 410.031 409.656 407.297C415.094 406.984 420.438 406.828 425.672 406.828C442.922 406.828 459.063 408.5 473.734 411.719C468.266 480.062 436.172 491.156 407.875 492.719Z"
              fill="white"/>
    </g>
    <defs>
        <clipPath id="clip0_80_33">
            <rect width="800" height="800" rx="100" fill="white"/>
        </clipPath>
    </defs>
</svg>