<svg width="800" height="800" viewBox="0 0 800 800" fill="none" xmlns="http://www.w3.org/2000/svg">
    <g clip-path="url(#clip0_80_36)">
        <path fill-rule="evenodd" clip-rule="evenodd"
              d="M164.062 -3.05176e-05H635.938C726.172 -3.05176e-05 850 -256.234 850 -166L961.5 800C961.5 890.234 726.172 800 635.938 800H164.062C73.8281 800 -53 944.234 -53 854L-90 -143C-90 -233.234 73.8281 -3.05176e-05 164.062 -3.05176e-05Z"
              fill="black"/>
        <path d="M521.619 210H586.151L444.462 371.255L610 590H480.095L378.387 457.07L261.949 590H197.417L347.524 417.528L189 210H322.132L414.02 331.432L521.619 210ZM499.033 552.14H534.806L303.334 246.458H264.895L499.033 552.14Z"
              fill="white"/>
    </g>
    <defs>
        <clipPath id="clip0_80_36">
            <rect width="800" height="800" rx="100" fill="white"/>
        </clipPath>
    </defs>
</svg>